<?xml version="1.0" standalone="no"?>
<!DOCTYPE svg PUBLIC "-//W3C//DTD SVG 20010904//EN"
 "http://www.w3.org/TR/2001/REC-SVG-20010904/DTD/svg10.dtd">
<svg version="1.0" xmlns="http://www.w3.org/2000/svg"
 width="280.000000pt" height="280.000000pt" viewBox="0 0 280.000000 280.000000"
 preserveAspectRatio="xMidYMid meet">

<g transform="translate(0.000000,280.000000) scale(0.100000,-0.100000)"
fill="#000000" stroke="none">
<path d="M1280 2690 c-444 -42 -842 -317 -1040 -717 -93 -190 -133 -362 -132
-578 1 -355 128 -661 377 -910 241 -241 526 -367 865 -381 759 -32 1378 587
1346 1346 -14 339 -140 624 -381 865 -234 234 -522 361 -860 378 -49 3 -128 1
-175 -3z m255 -611 c67 -25 151 -99 187 -166 97 -179 25 -404 -160 -495 -60
-30 -75 -33 -157 -33 -77 0 -98 4 -147 27 -79 37 -142 98 -181 177 -29 59 -32
75 -32 151 0 71 5 95 27 143 47 101 102 154 196 193 76 31 188 33 267 3z m120
-803 c153 -43 261 -121 315 -229 29 -59 30 -64 30 -209 l0 -148 -600 0 -600 0
0 135 c0 156 12 203 70 281 64 85 173 146 317 178 93 21 382 16 468 -8z"/>
</g>
</svg>
