<svg width="13" height="13" viewBox="0 0 13 13" fill="none" xmlns="http://www.w3.org/2000/svg">
<path fill-rule="evenodd" clip-rule="evenodd" d="M1.70711 0.292893C1.31658 -0.0976311 0.683417 -0.0976311 0.292893 0.292893C-0.0976311 0.683417 -0.0976311 1.31658 0.292893 1.70711L4.77341 6.18762L0.292893 10.6681C-0.0976311 11.0587 -0.0976311 11.6918 0.292893 12.0823C0.683417 12.4729 1.31658 12.4729 1.70711 12.0823L6.18762 7.60183L10.6681 12.0823C11.0587 12.4729 11.6918 12.4729 12.0823 12.0823C12.4729 11.6918 12.4729 11.0587 12.0823 10.6681L7.60183 6.18762L12.0823 1.70711C12.4729 1.31658 12.4729 0.683417 12.0823 0.292893C11.6918 -0.0976311 11.0587 -0.0976311 10.6681 0.292893L6.18762 4.77341L1.70711 0.292893Z" fill="#232323" fill-opacity="0.5"/>
</svg>
