<svg width="19" height="19" viewBox="0 0 19 19" fill="none" xmlns="http://www.w3.org/2000/svg">
<path d="M3.16667 19H15.8333C16.6732 19 17.4786 18.6664 18.0725 18.0725C18.6664 17.4786 19 16.6732 19 15.8333V3.16667C19 2.32681 18.6664 1.52136 18.0725 0.927495C17.4786 0.33363 16.6732 0 15.8333 0H3.16667C2.32681 0 1.52136 0.33363 0.927495 0.927495C0.33363 1.52136 0 2.32681 0 3.16667V15.8333C0 16.6732 0.33363 17.4786 0.927495 18.0725C1.52136 18.6664 2.32681 19 3.16667 19ZM15.8333 17.4167H3.16667C2.74674 17.4167 2.34401 17.2499 2.04708 16.9529C1.75015 16.656 1.58333 16.2533 1.58333 15.8333V7.91667H17.4167V15.8333C17.4167 16.2533 17.2499 16.656 16.9529 16.9529C16.656 17.2499 16.2533 17.4167 15.8333 17.4167ZM1.58333 3.16667C1.58333 2.74674 1.75015 2.34401 2.04708 2.04708C2.34401 1.75015 2.74674 1.58333 3.16667 1.58333H15.8333C16.2533 1.58333 16.656 1.75015 16.9529 2.04708C17.2499 2.34401 17.4167 2.74674 17.4167 3.16667V6.33333H1.58333V3.16667Z" fill="black"/>
<path d="M3.95829 4.75033C4.39552 4.75033 4.74996 4.39588 4.74996 3.95866C4.74996 3.52143 4.39552 3.16699 3.95829 3.16699C3.52107 3.16699 3.16663 3.52143 3.16663 3.95866C3.16663 4.39588 3.52107 4.75033 3.95829 4.75033Z" fill="black"/>
<path d="M7.12504 4.75033C7.56227 4.75033 7.91671 4.39588 7.91671 3.95866C7.91671 3.52143 7.56227 3.16699 7.12504 3.16699C6.68782 3.16699 6.33337 3.52143 6.33337 3.95866C6.33337 4.39588 6.68782 4.75033 7.12504 4.75033Z" fill="black"/>
<path d="M10.2917 4.75033C10.7289 4.75033 11.0833 4.39588 11.0833 3.95866C11.0833 3.52143 10.7289 3.16699 10.2917 3.16699C9.85444 3.16699 9.5 3.52143 9.5 3.95866C9.5 4.39588 9.85444 4.75033 10.2917 4.75033Z" fill="black"/>
<path d="M12.4331 9.73333C12.2817 9.60364 12.0869 9.53586 11.8876 9.54356C11.6884 9.55126 11.4994 9.63385 11.3584 9.77484C11.2174 9.91583 11.1348 10.1048 11.1271 10.3041C11.1194 10.5033 11.1872 10.6981 11.3169 10.8496L13.1298 12.6665L11.3169 14.4833C11.234 14.5543 11.1667 14.6416 11.1192 14.7399C11.0717 14.8381 11.045 14.9451 11.0408 15.0541C11.0365 15.1631 11.0549 15.2718 11.0947 15.3734C11.1345 15.475 11.1949 15.5673 11.272 15.6444C11.3492 15.7216 11.4415 15.782 11.543 15.8218C11.6446 15.8616 11.7534 15.8799 11.8624 15.8757C11.9714 15.8715 12.0784 15.8448 12.1766 15.7973C12.2748 15.7498 12.3622 15.6825 12.4331 15.5996L14.8081 13.2246C14.9556 13.0763 15.0383 12.8756 15.0383 12.6665C15.0383 12.4573 14.9556 12.2567 14.8081 12.1083L12.4331 9.73333Z" fill="black"/>
<path d="M7.68313 9.73314C7.5348 9.58569 7.33415 9.50293 7.12501 9.50293C6.91586 9.50293 6.71521 9.58569 6.56688 9.73314L4.19188 12.1081C4.04443 12.2565 3.96167 12.4571 3.96167 12.6663C3.96167 12.8754 4.04443 13.0761 4.19188 13.2244L6.56688 15.5994C6.71833 15.7291 6.91314 15.7969 7.11238 15.7892C7.31162 15.7815 7.50063 15.6989 7.64162 15.5579C7.78261 15.4169 7.86521 15.2279 7.8729 15.0286C7.8806 14.8294 7.81283 14.6346 7.68313 14.4831L5.87021 12.6663L7.68313 10.8494C7.83058 10.7011 7.91334 10.5004 7.91334 10.2913C7.91334 10.0821 7.83058 9.88147 7.68313 9.73314Z" fill="black"/>
</svg>
