<svg width="20" height="22" viewBox="0 0 20 22" fill="none" xmlns="http://www.w3.org/2000/svg">
<path d="M10.7597 2.9077C12.0358 3.01356 13.2757 3.38732 14.3984 4.00513C15.5572 4.64283 16.5632 5.52524 17.3465 6.59101C18.1298 7.65679 18.6717 8.88036 18.9343 10.1767C19.197 11.473 19.1742 12.811 18.8676 14.0977C18.5609 15.3843 17.9777 16.5887 17.1586 17.6272C16.3394 18.6657 15.3039 19.5133 14.1241 20.1112C12.9442 20.7091 11.6484 21.0428 10.3265 21.0893C9.00463 21.1357 7.68851 20.8938 6.46961 20.3802L6.46963 20.3801C4.58104 19.5837 3.01627 18.1736 2.02824 16.3777C1.04019 14.5819 0.686654 12.5053 1.02487 10.4836C1.36309 8.46201 2.37327 6.61354 3.89205 5.23708C5.38019 3.88839 7.2714 3.0701 9.27084 2.90751C9.26096 2.85834 9.25597 2.8082 9.256 2.75782M10.7597 2.9077L9.356 2.75789M10.7597 2.9077C10.7262 2.90492 10.6926 2.90233 10.6591 2.89992C10.6693 2.85337 10.6745 2.80575 10.6744 2.75789M10.7597 2.9077L9.256 2.31842M10.7597 2.9077C10.7695 2.85844 10.7745 2.8082 10.7744 2.75773M10.7597 2.9077L10.7744 2.75773M9.256 2.75782L9.356 2.75789M9.256 2.75782V2.75789H9.356M9.256 2.75782V2.41842M9.356 2.75789V2.41842H9.256M9.256 2.41842H8.47706C8.2757 2.41842 8.08259 2.33844 7.94021 2.19606C7.79783 2.05367 7.71785 1.86056 7.71785 1.65921C7.71785 1.45786 7.79783 1.26474 7.94021 1.12236C8.08259 0.979983 8.2757 0.9 8.47706 0.9H11.5534C11.7547 0.9 11.9478 0.979983 12.0902 1.12236C12.2326 1.26474 12.3126 1.45786 12.3126 1.65921C12.3126 1.86056 12.2326 2.05367 12.0902 2.19606C11.9478 2.33844 11.7547 2.41842 11.5534 2.41842H10.7744M9.256 2.41842V2.31842M9.256 2.31842H8.47706C8.30222 2.31842 8.13455 2.24897 8.01092 2.12534C7.88729 2.00172 7.81785 1.83404 7.81785 1.65921C7.81785 1.48438 7.88729 1.3167 8.01092 1.19307C8.13455 1.06945 8.30222 1 8.47706 1H11.5534C11.7282 1 11.8959 1.06945 12.0195 1.19307C12.1431 1.3167 12.2126 1.48438 12.2126 1.65921C12.2126 1.83404 12.1431 2.00172 12.0195 2.12534C11.8959 2.24897 11.7282 2.31842 11.5534 2.31842H10.7744V2.41842M9.256 2.31842L10.7744 2.75773M10.7744 2.41842H10.6744V2.75789M10.7744 2.41842V2.75773M10.6744 2.75789H10.7744V2.75773M10.6744 2.75789L10.7744 2.75773M9.40128 2.99807C9.38876 2.9661 9.37879 2.93327 9.37142 2.89989L9.29754 3.00569C9.33209 3.00295 9.36667 3.00041 9.40128 2.99807ZM16.0208 4.66591L16.0213 4.66648L18.1967 6.84186L18.2674 6.77115L18.1973 6.84245C18.3401 6.9829 18.5326 7.06123 18.7329 7.06039C18.9332 7.05955 19.125 6.9796 19.2666 6.83797C19.4082 6.69633 19.4881 6.50448 19.4889 6.30419C19.4897 6.10392 19.4113 5.91144 19.2708 5.76867L19.2703 5.7681L17.0949 3.59271L17.0943 3.59213C16.9515 3.45168 16.759 3.37336 16.5587 3.3742C16.3584 3.37503 16.1666 3.45496 16.025 3.59661C15.8834 3.73825 15.8034 3.93011 15.8027 4.13039C15.8019 4.33069 15.8803 4.52316 16.0208 4.66591ZM3.70374 16.204C2.86967 14.9558 2.42446 13.4882 2.42443 11.9869C2.42667 9.97439 3.22715 8.04492 4.65023 6.62183C6.07332 5.19875 8.00278 4.39829 10.0153 4.39605C11.5166 4.39607 12.9842 4.84126 14.2324 5.67532C15.4807 6.50941 16.4536 7.69492 17.0282 9.08196C17.6027 10.469 17.753 11.9952 17.4601 13.4677C17.1672 14.9402 16.4443 16.2927 15.3827 17.3543C14.3211 18.4159 12.9686 19.1389 11.4961 19.4318C10.0236 19.7246 8.49741 19.5743 7.11037 18.9998C5.72334 18.4253 4.53782 17.4523 3.70374 16.204Z" fill="black" stroke="black" stroke-width="0.2"/>
<path d="M10.0155 5.29453H9.9155V5.39453V11.9866V12.0866H10.0155H16.6076H16.7076V11.9866C16.7076 10.2118 16.0025 8.50961 14.7475 7.2546C13.4925 5.99959 11.7904 5.29453 10.0155 5.29453Z" fill="black" stroke="black" stroke-width="0.2"/>
</svg>
