<svg width="17" height="20" viewBox="0 0 17 20" fill="none" xmlns="http://www.w3.org/2000/svg">
<path d="M15.1111 20H1.88889C0.845684 20 0 19.1046 0 18V4C0 2.89543 0.845684 2 1.88889 2H3.77778V1C3.77778 0.44772 4.20062 0 4.72222 0C5.24382 0 5.66667 0.44772 5.66667 1V2H11.3333V1C11.3333 0.44772 11.7562 0 12.2778 0C12.7994 0 13.2222 0.44772 13.2222 1V2H15.1111C16.1543 2 17 2.89543 17 4V18C17 19.1046 16.1543 20 15.1111 20ZM1.88889 8V18H14.1667C14.6883 18 15.1111 17.5523 15.1111 17V8H1.88889ZM1.88889 4V6H15.1111V4H1.88889ZM9.44444 15C9.44444 15.5523 9.02162 16 8.5 16H4.72222C4.20062 16 3.77778 15.5523 3.77778 15V11C3.77778 10.4477 4.20062 10 4.72222 10H8.5C9.02162 10 9.44444 10.4477 9.44444 11V15Z" fill="#232323"/>
</svg>
