<svg width="20" height="20" viewBox="0 0 20 20" fill="none" xmlns="http://www.w3.org/2000/svg">
<path d="M11.4663 12.2422L11.4662 12.2422L9.50794 10.7194L11.4663 12.2422ZM11.4663 12.2422C11.6324 12.3712 11.8429 12.4289 12.0516 12.4026C12.2603 12.3763 12.4499 12.2682 12.5789 12.1021C12.7078 11.936 12.7655 11.7255 12.7393 11.5168C12.713 11.3082 12.6049 11.1186 12.4389 10.9896M11.4663 12.2422L12.4389 10.9896M12.4389 10.9896C12.4388 10.9896 12.4388 10.9896 12.4388 10.9895M12.4389 10.9896L12.4388 10.9895M12.4388 10.9895L10.7868 9.70559V5.68206C10.7868 5.47178 10.7033 5.27011 10.5546 5.12142C10.4059 4.97274 10.2042 4.8892 9.99395 4.8892C9.78367 4.8892 9.582 4.97274 9.43331 5.12142C9.28462 5.27011 9.20109 5.47178 9.20109 5.68206V10.0935V10.0936L12.4388 10.9895ZM16.4671 3.52707L16.4669 3.5269C15.1869 2.24812 13.5566 1.37753 11.7819 1.02518C10.0072 0.672833 8.16787 0.854542 6.49644 1.54734C4.825 2.24014 3.39648 3.41292 2.39145 4.91744C1.38642 6.42196 0.85 8.19067 0.85 10C0.85 11.8093 1.38642 13.578 2.39145 15.0826C3.39648 16.5871 4.825 17.7599 6.49644 18.4527C8.16787 19.1455 10.0072 19.3272 11.7819 18.9748C13.5566 18.6225 15.1869 17.7519 16.4669 16.4731L16.4671 16.4729C18.1813 14.7548 19.1439 12.427 19.1439 10C19.1439 7.57304 18.1813 5.24517 16.4671 3.52707ZM15.3457 15.352C14.2873 16.4105 12.9387 17.1314 11.4705 17.4234C10.0023 17.7155 8.48046 17.5657 7.09742 16.9928C5.71439 16.42 4.53228 15.4499 3.70059 14.2052C2.86891 12.9605 2.42499 11.4971 2.42499 10.0001C2.42499 8.50315 2.86891 7.03978 3.70059 5.7951C4.53228 4.55041 5.71439 3.5803 7.09742 3.00745C8.48046 2.4346 10.0023 2.28473 11.4705 2.57681C12.9387 2.86889 14.2874 3.58978 15.3459 4.64834C16.7631 6.06883 17.5591 7.99351 17.5591 10.0001C17.5591 12.0068 16.7631 13.9315 15.3457 15.352Z" fill="black" stroke="black" stroke-width="0.3"/>
</svg>
