<svg width="17" height="16" viewBox="0 0 17 16" fill="none" xmlns="http://www.w3.org/2000/svg">
<path d="M0.373047 11.7686V4.03997C0.404983 3.88029 0.420952 3.7206 0.452888 3.56092C0.596602 2.73057 0.995809 1.9641 1.57067 1.3573C2.14552 0.750508 2.89603 0.319365 3.71041 0.127746C3.93397 0.063873 4.18946 0.0479048 4.41302 0H12.1257C12.1736 0.0159683 12.2215 0.0159683 12.2694 0.0319365C12.7005 0.063873 13.1157 0.175651 13.5149 0.36727C14.3133 0.686635 14.984 1.26149 15.463 1.98006C15.9261 2.69864 16.1816 3.54495 16.1657 4.40724C16.1976 6.75457 16.1816 9.10191 16.1657 11.4492C16.1816 12.3435 15.9102 13.2217 15.3992 13.9403C15 14.5311 14.4411 15.0261 13.8024 15.3615C13.1636 15.6968 12.445 15.8565 11.7265 15.8405C9.42705 15.8405 7.11165 15.8405 4.81222 15.8405C4.50883 15.8405 4.2214 15.8245 3.918 15.7607C3.08765 15.617 2.32117 15.2337 1.71438 14.6429C1.12355 14.0361 0.692412 13.2856 0.500793 12.4712C0.43692 12.2477 0.420952 11.9922 0.373047 11.7686ZM14.7764 7.90429C14.7764 6.75457 14.7764 5.62083 14.7764 4.47111C14.7924 4.10384 14.7285 3.75254 14.6167 3.41721C14.4091 2.81041 14.0259 2.29943 13.499 1.93216C12.972 1.56489 12.3492 1.38924 11.7105 1.40521C9.41108 1.40521 7.11165 1.40521 4.81222 1.40521C4.46092 1.40521 4.10962 1.45311 3.79025 1.56489C3.18346 1.75651 2.65651 2.15572 2.28924 2.6667C1.92197 3.17768 1.74632 3.81641 1.76229 4.45514C1.76229 6.75457 1.76229 9.054 1.76229 11.3534C1.76229 11.7047 1.81019 12.056 1.92197 12.4073C2.12956 12.9982 2.51279 13.5251 3.02378 13.8764C3.53476 14.2437 4.15752 14.4193 4.79625 14.4034C7.11165 14.4034 9.42705 14.4034 11.7424 14.4034C12.2215 14.4193 12.7165 14.3076 13.1477 14.084C13.5788 13.8604 13.9461 13.5411 14.2335 13.1419C14.6008 12.6149 14.7924 11.9922 14.7764 11.3375C14.7764 10.2037 14.7764 9.054 14.7764 7.90429Z" fill="white"/>
<path d="M12.4615 7.90341C12.4615 8.73376 12.206 9.54814 11.7589 10.2348C11.2958 10.9214 10.6411 11.4643 9.8746 11.7837C9.10813 12.1031 8.26181 12.1829 7.44743 12.0232C6.63305 11.8635 5.88254 11.4643 5.30768 10.8735C4.71686 10.2827 4.31765 9.54814 4.15797 8.73376C3.99828 7.91938 4.07812 7.07306 4.39749 6.30658C4.71686 5.54011 5.25978 4.88541 5.94641 4.42233C6.63305 3.95925 7.44743 3.71973 8.27778 3.71973C9.39556 3.71973 10.4495 4.16684 11.2479 4.94928C12.0143 5.73173 12.4615 6.78563 12.4615 7.90341ZM8.27778 10.65C8.8207 10.65 9.34765 10.4903 9.81073 10.1869C10.2578 9.88348 10.6091 9.45233 10.8327 8.95732C11.0403 8.4623 11.1042 7.90341 10.9924 7.37646C10.8806 6.84951 10.6251 6.35449 10.2419 5.97125C9.85863 5.58801 9.36362 5.31655 8.83667 5.22074C8.30971 5.10897 7.75082 5.17284 7.25581 5.38043C6.76079 5.58801 6.32965 5.93931 6.02625 6.38643C5.72286 6.83354 5.56317 7.37646 5.56317 7.91938C5.56317 8.65392 5.8506 9.34055 6.36159 9.86751C6.84063 10.3625 7.54324 10.65 8.27778 10.65Z" fill="white"/>
<path d="M12.5571 2.65039C12.7487 2.65039 12.9404 2.71426 13.1 2.82604C13.2597 2.93782 13.3875 3.0975 13.4513 3.27315C13.5152 3.4488 13.5312 3.65639 13.4993 3.84801C13.4513 4.03963 13.3555 4.21528 13.2118 4.34303C13.0681 4.47077 12.8925 4.56658 12.7008 4.59852C12.5092 4.63045 12.3176 4.61449 12.126 4.53465C11.9503 4.4548 11.7906 4.32706 11.6948 4.16738C11.5831 4.00769 11.5352 3.81607 11.5352 3.60849C11.5352 3.33703 11.6469 3.0975 11.8386 2.90588C12.0302 2.7462 12.2857 2.65039 12.5571 2.65039Z" fill="white"/>
</svg>
