<?xml version="1.0" encoding="utf-8"?>
<!-- Generator: Adobe Illustrator 22.1.0, SVG Export Plug-In . SVG Version: 6.00 Build 0)  -->
<svg version="1.1" id="Layer_1" xmlns="http://www.w3.org/2000/svg" xmlns:xlink="http://www.w3.org/1999/xlink" x="0px" y="0px"
	 viewBox="0 0 16 16" style="enable-background:new 0 0 16 16;" xml:space="preserve">
<style type="text/css">
	.st0{fill:#FFFFFF;}
	.st1{fill:#232323;}
</style>
<g>
	<path class="st0" d="M14.9,0h-13C1.3,0,0.8,0.5,0.8,1.1v13c0,0.6,0.5,1.1,1.1,1.1h13c0.6,0,1.1-0.5,1.1-1.1v-13
		C16,0.5,15.5,0,14.9,0z M5.4,12.7H3.1V5.9h2.3V12.7L5.4,12.7L5.4,12.7z M4.3,5L4.3,5L4.3,5C3.5,5,3,4.4,3,3.8
		c0-0.7,0.5-1.2,1.3-1.2c0.8,0,1.3,0.5,1.3,1.2C5.6,4.4,5.1,5,4.3,5z M13.6,12.7h-2.3V9.1c0-0.9-0.3-1.5-1.2-1.5
		c-0.6,0-1,0.4-1.2,0.8C9,8.5,8.9,8.7,8.9,8.9v3.8H6.7l0,0c0,0,0-6.2,0-6.9h2.3v1C9.2,6.4,9.8,5.7,11,5.7c1.5,0,2.6,1,2.6,3.1V12.7z
		"/>
	<path class="st1" d="M8.9,6.9L8.9,6.9C8.9,6.9,8.9,6.9,8.9,6.9L8.9,6.9z"/>
</g>
</svg>
