<?xml version="1.0" encoding="UTF-8" standalone="no"?>
<svg
   xmlns:dc="http://purl.org/dc/elements/1.1/"
   xmlns:cc="http://creativecommons.org/ns#"
   xmlns:rdf="http://www.w3.org/1999/02/22-rdf-syntax-ns#"
   xmlns:svg="http://www.w3.org/2000/svg"
   xmlns="http://www.w3.org/2000/svg"
   xmlns:sodipodi="http://sodipodi.sourceforge.net/DTD/sodipodi-0.dtd"
   xmlns:inkscape="http://www.inkscape.org/namespaces/inkscape"
   version="1.1"
   id="svg2"
   xml:space="preserve"
   width="1122.52"
   height="677.12134"
   viewBox="0 0 1122.52 677.12134"
   sodipodi:docname="Logo final Sepáralo pe!.ai"><metadata
     id="metadata8"><rdf:RDF><cc:Work
         rdf:about=""><dc:format>image/svg+xml</dc:format><dc:type
           rdf:resource="http://purl.org/dc/dcmitype/StillImage" /></cc:Work></rdf:RDF></metadata><defs
     id="defs6"><clipPath
       clipPathUnits="userSpaceOnUse"
       id="clipPath46"><path
         d="M 0,507.841 H 841.89 V 0 H 0 Z"
         id="path44" /></clipPath></defs><sodipodi:namedview
     pagecolor="#ffffff"
     bordercolor="#666666"
     borderopacity="1"
     objecttolerance="10"
     gridtolerance="10"
     guidetolerance="10"
     inkscape:pageopacity="0"
     inkscape:pageshadow="2"
     inkscape:window-width="640"
     inkscape:window-height="480"
     id="namedview4" /><g
     id="g10"
     inkscape:groupmode="layer"
     inkscape:label="Logo final Sepáralo pe!"
     transform="matrix(1.3333333,0,0,-1.3333333,0,677.12133)"><path
       d="M 0.023,0 H 841.889 V 507.685 H 0.023 Z"
       style="fill:#1e1e1e;fill-opacity:1;fill-rule:nonzero;stroke:none"
       id="path12" /><path
       d="m 357.585,300.655 h 107.964 v 19.92 H 357.585 Z"
       style="fill:#ffffff;fill-opacity:1;fill-rule:nonzero;stroke:none"
       id="path14" /><path
       d="m 379.497,282.542 h -12.084 v 12.082 h 12.084 z"
       style="fill:#ffffff;fill-opacity:1;fill-rule:nonzero;stroke:none"
       id="path16" /><path
       d="m 379.497,261.964 h -12.084 v 12.083 h 12.084 z"
       style="fill:#ffffff;fill-opacity:1;fill-rule:nonzero;stroke:none"
       id="path18" /><path
       d="m 379.497,241.387 h -12.084 v 12.086 h 12.084 z"
       style="fill:#ffffff;fill-opacity:1;fill-rule:nonzero;stroke:none"
       id="path20" /><path
       d="m 398.553,282.542 h -12.084 v 12.082 h 12.084 z"
       style="fill:#ffffff;fill-opacity:1;fill-rule:nonzero;stroke:none"
       id="path22" /><path
       d="m 398.553,261.964 h -12.084 v 12.083 h 12.084 z"
       style="fill:#ffffff;fill-opacity:1;fill-rule:nonzero;stroke:none"
       id="path24" /><path
       d="m 398.553,241.387 h -12.084 v 12.086 h 12.084 z"
       style="fill:#ffffff;fill-opacity:1;fill-rule:nonzero;stroke:none"
       id="path26" /><path
       d="m 417.608,241.387 h -12.083 v 12.086 h 12.083 z"
       style="fill:#ffde00;fill-opacity:1;fill-rule:nonzero;stroke:none"
       id="path28" /><path
       d="M 436.664,282.542 H 424.58 v 12.082 h 12.084 z"
       style="fill:#ffffff;fill-opacity:1;fill-rule:nonzero;stroke:none"
       id="path30" /><path
       d="M 436.664,261.964 H 424.58 v 12.083 h 12.084 z"
       style="fill:#ffffff;fill-opacity:1;fill-rule:nonzero;stroke:none"
       id="path32" /><path
       d="M 436.664,241.387 H 424.58 v 12.086 h 12.084 z"
       style="fill:#ffffff;fill-opacity:1;fill-rule:nonzero;stroke:none"
       id="path34" /><path
       d="m 455.721,282.542 h -12.084 v 12.082 h 12.084 z"
       style="fill:#ffffff;fill-opacity:1;fill-rule:nonzero;stroke:none"
       id="path36" /><path
       d="m 417.608,261.964 h -12.083 v 32.659 h 12.083 z"
       style="fill:#ffde00;fill-opacity:1;fill-rule:nonzero;stroke:none"
       id="path38" /><g
       id="g40"><g
         id="g42"
         clip-path="url(#clipPath46)"><g
           id="g48"
           transform="translate(483.8301,238.9634)"><path
             d="m 0,0 -10.904,9.867 6.334,7 c 0.884,0.977 1.187,2.353 0.792,3.612 -0.396,1.258 -1.427,2.212 -2.712,2.511 l -26.403,6.137 c -1.301,0.308 -2.693,-0.125 -3.601,-1.127 -0.908,-1.004 -1.202,-2.416 -0.766,-3.699 l 8.739,-25.658 c 0.426,-1.247 1.48,-2.179 2.773,-2.447 0.311,-0.066 0.625,-0.087 0.938,-0.071 0.975,0.048 1.907,0.479 2.575,1.221 l 6.334,7 10.906,-9.867 c 0.761,-0.689 1.731,-1.006 2.682,-0.959 0.953,0.048 1.887,0.46 2.576,1.222 C 1.645,-3.732 1.526,-1.382 0,0"
             style="fill:#ffffff;fill-opacity:1;fill-rule:nonzero;stroke:none"
             id="path50" /></g><g
           id="g52"
           transform="translate(465.5488,298.1606)"><path
             d="M 0,0 V -20.977"
             style="fill:#ffffff;fill-opacity:1;fill-rule:nonzero;stroke:none"
             id="path54" /></g><g
           id="g56"
           transform="translate(396.167,232.7671)"><path
             d="M 0,0 H 49.114"
             style="fill:#ffffff;fill-opacity:1;fill-rule:nonzero;stroke:none"
             id="path58" /></g><g
           id="g60"
           transform="translate(461.6895,323.0708)"><path
             d="m 0,0 h -100.246 c -3.503,0 -6.354,-2.851 -6.354,-6.354 v -80.072 c 0,-3.503 2.851,-6.353 6.354,-6.353 h 34.724 47.469 1.645 c 1.379,0 2.494,1.116 2.494,2.495 0,1.378 -1.115,2.494 -2.494,2.494 h -1.645 v 0.002 h -82.193 c -0.751,0 -1.363,0.611 -1.363,1.362 v 80.072 c 0,0.751 0.612,1.363 1.363,1.363 H 0 c 0.752,0 1.363,-0.612 1.363,-1.363 v -18.556 -20.68 -0.297 c 0,-1.379 1.118,-2.496 2.496,-2.496 1.377,0 2.495,1.117 2.495,2.496 v 0.297 20.68 18.556 C 6.354,-2.851 3.504,0 0,0"
             style="fill:#ffffff;fill-opacity:1;fill-rule:nonzero;stroke:none"
             id="path62" /></g><g
           id="g64"
           transform="translate(443.6367,313.3442)"><path
             d="m 0,0 c 0,-3.337 2.705,-6.042 6.042,-6.042 3.337,0 6.042,2.705 6.042,6.042 0,3.337 -2.705,6.042 -6.042,6.042 C 2.705,6.042 0,3.337 0,0"
             style="fill:#2a2a29;fill-opacity:1;fill-rule:nonzero;stroke:none"
             id="path66" /></g><g
           id="g68"
           transform="translate(367.4131,313.5327)"><path
             d="m 0,0 c 0,-3.337 2.705,-6.042 6.041,-6.042 3.338,0 6.043,2.705 6.043,6.042 0,3.337 -2.705,6.042 -6.043,6.042 C 2.705,6.042 0,3.337 0,0"
             style="fill:#2a2a29;fill-opacity:1;fill-rule:nonzero;stroke:none"
             id="path70" /></g><g
           id="g72"
           transform="translate(377.3975,315.8872)"><path
             d="m 0,0 c 0,-2.004 -1.766,-3.629 -3.943,-3.629 -2.178,0 -3.944,1.625 -3.944,3.629 v 14.52 c 0,2.003 1.766,3.628 3.944,3.628 C -1.766,18.148 0,16.523 0,14.52 Z"
             style="fill:#ffffff;fill-opacity:1;fill-rule:nonzero;stroke:none"
             id="path74" /></g><g
           id="g76"
           transform="translate(453.6211,315.6997)"><path
             d="m 0,0 c 0,-2.006 -1.765,-3.631 -3.942,-3.631 -2.179,0 -3.945,1.625 -3.945,3.631 v 14.518 c 0,2.004 1.766,3.63 3.945,3.63 2.177,0 3.942,-1.626 3.942,-3.63 z"
             style="fill:#ffffff;fill-opacity:1;fill-rule:nonzero;stroke:none"
             id="path78" /></g><g
           id="g80"
           transform="translate(297.5464,189.3584)"><path
             d="m 0,0 c 0.457,0 1.086,-0.008 1.887,-0.023 0.8,-0.018 1.657,-0.082 2.572,-0.198 0.914,-0.113 1.838,-0.31 2.769,-0.588 0.93,-0.277 1.771,-0.677 2.523,-1.199 0.751,-0.523 1.364,-1.193 1.838,-2.01 0.473,-0.816 0.71,-1.83 0.71,-3.037 0,-1.896 -0.416,-3.406 -1.249,-4.533 -0.833,-1.127 -1.855,-1.984 -3.063,-2.572 -1.209,-0.588 -2.508,-0.963 -3.895,-1.127 -1.389,-0.164 -2.622,-0.246 -3.699,-0.246 -0.197,0 -0.622,0.01 -1.275,0.025 -0.654,0.018 -1.413,0.106 -2.278,0.27 -0.866,0.164 -1.781,0.424 -2.744,0.783 -0.964,0.359 -1.846,0.875 -2.647,1.545 -0.801,0.668 -1.462,1.535 -1.984,2.596 -0.523,1.062 -0.783,2.359 -0.783,3.896 h 5.977 c 0,-0.295 0.049,-0.646 0.148,-1.055 0.097,-0.408 0.326,-0.808 0.685,-1.199 0.36,-0.392 0.899,-0.728 1.617,-1.006 0.718,-0.277 1.699,-0.431 2.94,-0.465 1.535,-0.033 2.72,0.034 3.553,0.196 0.833,0.164 1.445,0.384 1.837,0.662 0.392,0.277 0.628,0.564 0.71,0.857 0.081,0.295 0.123,0.573 0.123,0.834 0,0.293 -0.048,0.588 -0.147,0.881 -0.098,0.295 -0.352,0.565 -0.76,0.809 -0.408,0.246 -1.045,0.449 -1.91,0.613 -0.866,0.162 -2.066,0.26 -3.601,0.293 -1.177,0.033 -2.353,0.197 -3.529,0.49 -1.176,0.295 -2.238,0.742 -3.184,1.348 -0.949,0.603 -1.716,1.363 -2.304,2.279 -0.588,0.914 -0.882,1.992 -0.882,3.233 0,1.373 0.294,2.574 0.882,3.601 0.588,1.029 1.364,1.871 2.328,2.524 0.963,0.654 2.065,1.144 3.308,1.47 1.24,0.326 2.548,0.491 3.92,0.491 0.717,0 1.681,-0.083 2.89,-0.245 C 4.491,10.029 5.676,9.654 6.836,9.066 7.995,8.477 8.991,7.611 9.824,6.469 10.657,5.324 11.058,3.773 11.025,1.814 H 5.047 c 0,1.045 -0.352,1.87 -1.053,2.473 -0.703,0.606 -1.953,0.908 -3.749,0.908 -1.34,0 -2.418,-0.254 -3.234,-0.759 -0.817,-0.508 -1.225,-1.202 -1.225,-2.084 0,-0.85 0.392,-1.454 1.176,-1.813 C -2.254,0.18 -1.241,0 0,0"
             style="fill:#ffffff;fill-opacity:1;fill-rule:nonzero;stroke:none"
             id="path82" /></g><g
           id="g84"
           transform="translate(329.1997,189.8975)"><path
             d="M 0,0 C -0.164,0.523 -0.367,1.045 -0.612,1.568 -0.857,2.09 -1.192,2.564 -1.617,2.99 -2.042,3.414 -2.548,3.748 -3.136,3.994 -3.724,4.238 -4.41,4.361 -5.194,4.361 -5.978,4.361 -6.664,4.238 -7.252,3.994 -7.84,3.748 -8.347,3.414 -8.771,2.99 -9.196,2.564 -9.539,2.09 -9.8,1.568 -10.062,1.045 -10.258,0.523 -10.388,0 Z m 6.174,0 c 0.065,-0.49 0.123,-0.996 0.172,-1.518 0.049,-0.523 0.073,-1.078 0.073,-1.666 v -0.882 h -17.15 c 0.065,-0.557 0.147,-1.12 0.245,-1.692 0.098,-0.57 0.261,-1.135 0.49,-1.689 0.359,-0.85 0.914,-1.602 1.666,-2.254 0.751,-0.654 1.796,-0.981 3.136,-0.981 1.34,0 2.384,0.327 3.136,0.981 0.751,0.652 1.306,1.404 1.666,2.254 h 6.37 c -0.262,-1.145 -0.629,-2.141 -1.102,-2.991 -0.475,-0.849 -0.997,-1.583 -1.568,-2.203 -0.573,-0.621 -1.185,-1.136 -1.839,-1.545 -0.653,-0.408 -1.29,-0.742 -1.91,-1.003 -1.503,-0.588 -3.087,-0.883 -4.753,-0.883 -2.189,0.033 -4.133,0.49 -5.831,1.373 -0.719,0.392 -1.429,0.888 -2.132,1.494 -0.702,0.603 -1.322,1.363 -1.862,2.279 -0.539,0.914 -0.973,2.008 -1.298,3.283 -0.327,1.274 -0.49,2.76 -0.49,4.459 0,1.698 0.163,3.184 0.49,4.459 0.325,1.274 0.759,2.375 1.298,3.307 0.54,0.932 1.16,1.707 1.862,2.328 0.703,0.619 1.413,1.127 2.132,1.518 1.698,0.914 3.642,1.404 5.831,1.47 C -3.397,9.832 -1.715,9.457 -0.147,8.771 0.506,8.477 1.168,8.094 1.838,7.619 2.507,7.146 3.128,6.559 3.699,5.855 4.271,5.152 4.777,4.32 5.218,3.357 5.659,2.393 5.978,1.275 6.174,0"
             style="fill:#ffffff;fill-opacity:1;fill-rule:nonzero;stroke:none"
             id="path86" /></g><g
           id="g88"
           transform="translate(350.1714,194.0146)"><path
             d="M 0,0 C -1.274,0 -2.287,-0.213 -3.038,-0.639 -3.79,-1.062 -4.354,-1.627 -4.729,-2.328 -5.104,-3.031 -5.35,-3.814 -5.464,-4.68 c -0.114,-0.867 -0.171,-1.74 -0.171,-2.621 0,-0.72 0.065,-1.504 0.196,-2.353 0.13,-0.85 0.4,-1.641 0.808,-2.375 0.408,-0.737 0.981,-1.348 1.715,-1.838 0.735,-0.49 1.707,-0.737 2.916,-0.737 1.208,0 2.181,0.247 2.915,0.737 0.735,0.49 1.299,1.101 1.69,1.838 0.393,0.734 0.654,1.525 0.785,2.375 0.13,0.849 0.196,1.633 0.196,2.353 0,0.717 -0.066,1.502 -0.196,2.352 -0.131,0.847 -0.392,1.64 -0.785,2.377 C 4.214,-1.838 3.65,-1.227 2.915,-0.736 2.181,-0.246 1.208,0 0,0 m -11.466,-7.352 c 0,2.059 0.212,3.897 0.637,5.514 0.424,1.617 1.102,2.988 2.033,4.115 0.932,1.127 2.115,1.993 3.553,2.598 C -3.806,5.479 -2.059,5.781 0,5.781 2.156,5.715 4.083,5.225 5.782,4.311 6.5,3.92 7.211,3.412 7.913,2.793 8.615,2.172 9.236,1.396 9.775,0.465 c 0.539,-0.932 0.98,-2.033 1.324,-3.307 0.342,-1.275 0.514,-2.762 0.514,-4.459 0,-1.699 -0.156,-3.185 -0.466,-4.459 -0.31,-1.275 -0.718,-2.369 -1.225,-3.283 -0.507,-0.916 -1.077,-1.676 -1.715,-2.279 -0.637,-0.606 -1.298,-1.102 -1.984,-1.494 -1.568,-0.883 -3.366,-1.34 -5.39,-1.373 -1.013,0.066 -1.993,0.279 -2.94,0.638 -0.817,0.326 -1.65,0.848 -2.499,1.567 -0.85,0.718 -1.552,1.763 -2.107,3.136 l 1.078,-1.422 v -11.662 h -5.831 z"
             style="fill:#ffffff;fill-opacity:1;fill-rule:nonzero;stroke:none"
             id="path90" /></g><g
           id="g92"
           transform="translate(376.2876,194.0146)"><path
             d="m 0,0 c -1.209,0 -2.181,-0.246 -2.915,-0.736 -0.735,-0.491 -1.299,-1.102 -1.69,-1.836 -0.393,-0.737 -0.655,-1.53 -0.785,-2.377 -0.131,-0.85 -0.196,-1.635 -0.196,-2.352 0,-0.72 0.065,-1.504 0.196,-2.353 0.13,-0.85 0.392,-1.641 0.785,-2.375 0.391,-0.737 0.955,-1.348 1.69,-1.838 0.734,-0.49 1.706,-0.737 2.915,-0.737 1.208,0 2.181,0.247 2.916,0.737 0.734,0.49 1.306,1.101 1.714,1.838 0.409,0.734 0.679,1.525 0.809,2.375 0.13,0.849 0.196,1.633 0.196,2.353 0,0.881 -0.057,1.754 -0.172,2.621 -0.114,0.866 -0.359,1.649 -0.734,2.352 -0.376,0.701 -0.94,1.266 -1.691,1.689 C 2.286,-0.213 1.274,0 0,0 M 11.466,-19.699 H 5.635 v 3.429 l 1.077,1.422 c -0.555,-1.373 -1.257,-2.418 -2.106,-3.136 -0.851,-0.719 -1.684,-1.241 -2.499,-1.567 -0.948,-0.359 -1.927,-0.572 -2.94,-0.638 -2.025,0.033 -3.822,0.49 -5.39,1.373 -0.686,0.392 -1.347,0.888 -1.984,1.494 -0.638,0.603 -1.209,1.363 -1.715,2.279 -0.507,0.914 -0.915,2.008 -1.225,3.283 -0.311,1.274 -0.466,2.76 -0.466,4.459 0,1.697 0.163,3.184 0.49,4.459 0.326,1.274 0.76,2.375 1.299,3.307 0.539,0.931 1.159,1.707 1.862,2.328 0.701,0.619 1.412,1.127 2.131,1.518 1.698,0.914 3.643,1.404 5.831,1.47 2.059,0 3.806,-0.302 5.243,-0.906 1.438,-0.605 2.621,-1.471 3.552,-2.598 0.932,-1.127 1.609,-2.498 2.034,-4.115 0.424,-1.617 0.637,-3.455 0.637,-5.514 z"
             style="fill:#ffffff;fill-opacity:1;fill-rule:nonzero;stroke:none"
             id="path94" /></g><g
           id="g96"
           transform="translate(390.8403,191.9072)"><path
             d="M 0,0 C 0,1.697 0.358,3.029 1.078,3.994 1.796,4.957 2.58,5.684 3.43,6.174 4.441,6.762 5.586,7.121 6.859,7.252 H 13.72 V 1.322 H 9.113 C 8.46,1.322 7.93,1.207 7.521,0.98 7.112,0.75 6.794,0.506 6.565,0.244 6.304,-0.082 6.125,-0.441 6.026,-0.834 V -17.592 H 0 Z"
             style="fill:#ffffff;fill-opacity:1;fill-rule:nonzero;stroke:none"
             id="path98" /></g><g
           id="g100"
           transform="translate(418.916,194.0146)"><path
             d="m 0,0 c -1.208,0 -2.18,-0.246 -2.915,-0.736 -0.735,-0.491 -1.298,-1.102 -1.69,-1.836 -0.393,-0.737 -0.654,-1.53 -0.784,-2.377 -0.131,-0.85 -0.196,-1.635 -0.196,-2.352 0,-0.72 0.065,-1.504 0.196,-2.353 0.13,-0.85 0.391,-1.641 0.784,-2.375 0.392,-0.737 0.955,-1.348 1.69,-1.838 0.735,-0.49 1.707,-0.737 2.915,-0.737 1.208,0 2.181,0.247 2.917,0.737 0.734,0.49 1.305,1.101 1.714,1.838 0.409,0.734 0.678,1.525 0.809,2.375 0.13,0.849 0.195,1.633 0.195,2.353 0,0.881 -0.056,1.754 -0.171,2.621 -0.115,0.866 -0.36,1.649 -0.735,2.352 C 4.353,-1.627 3.79,-1.062 3.039,-0.639 2.287,-0.213 1.275,0 0,0 M 11.466,-19.699 H 5.635 v 3.429 l 1.078,1.422 c -0.555,-1.373 -1.257,-2.418 -2.106,-3.136 -0.851,-0.719 -1.684,-1.241 -2.499,-1.567 -0.948,-0.359 -1.928,-0.572 -2.941,-0.638 -2.025,0.033 -3.822,0.49 -5.389,1.373 -0.687,0.392 -1.348,0.888 -1.985,1.494 -0.637,0.603 -1.209,1.363 -1.714,2.279 -0.507,0.914 -0.915,2.008 -1.226,3.283 -0.311,1.274 -0.466,2.76 -0.466,4.459 0,1.697 0.163,3.184 0.49,4.459 0.327,1.274 0.76,2.375 1.299,3.307 0.539,0.931 1.159,1.707 1.863,2.328 0.701,0.619 1.412,1.127 2.13,1.518 1.699,0.914 3.643,1.404 5.831,1.47 2.059,0 3.806,-0.302 5.244,-0.906 C 6.681,4.27 7.865,3.404 8.796,2.277 9.727,1.15 10.405,-0.221 10.83,-1.838 c 0.423,-1.617 0.636,-3.455 0.636,-5.514 z"
             style="fill:#ffffff;fill-opacity:1;fill-rule:nonzero;stroke:none"
             id="path102" /></g><path
           d="m 439.594,174.315 h -5.979 v 33.076 h 5.979 z"
           style="fill:#ffffff;fill-opacity:1;fill-rule:nonzero;stroke:none"
           id="path104" /><g
           id="g106"
           transform="translate(454.293,194.0146)"><path
             d="m 0,0 c -1.209,0 -2.18,-0.246 -2.916,-0.736 -0.734,-0.491 -1.297,-1.102 -1.69,-1.836 -0.392,-0.737 -0.653,-1.53 -0.784,-2.377 -0.131,-0.85 -0.195,-1.635 -0.195,-2.352 0,-0.72 0.064,-1.504 0.195,-2.353 0.131,-0.85 0.392,-1.641 0.784,-2.375 0.393,-0.737 0.956,-1.348 1.69,-1.838 0.736,-0.49 1.707,-0.737 2.916,-0.737 1.208,0 2.18,0.247 2.915,0.737 0.736,0.49 1.299,1.101 1.691,1.838 0.392,0.734 0.653,1.525 0.784,2.375 0.13,0.849 0.196,1.633 0.196,2.353 0,0.717 -0.066,1.502 -0.196,2.352 -0.131,0.847 -0.392,1.64 -0.784,2.377 C 4.214,-1.838 3.651,-1.227 2.915,-0.736 2.18,-0.246 1.208,0 0,0 m -11.613,-7.301 c 0,1.697 0.163,3.184 0.49,4.459 0.327,1.274 0.759,2.375 1.298,3.307 0.539,0.931 1.159,1.707 1.863,2.328 0.702,0.619 1.413,1.127 2.131,1.518 C -4.132,5.225 -2.189,5.715 0,5.781 2.156,5.715 4.083,5.225 5.782,4.311 6.5,3.92 7.21,3.412 7.914,2.793 8.616,2.172 9.237,1.396 9.776,0.465 c 0.539,-0.932 0.979,-2.033 1.323,-3.307 0.343,-1.275 0.514,-2.762 0.514,-4.459 0,-1.699 -0.171,-3.185 -0.514,-4.459 -0.344,-1.275 -0.784,-2.369 -1.323,-3.283 -0.539,-0.916 -1.16,-1.676 -1.862,-2.279 C 7.21,-17.928 6.5,-18.424 5.782,-18.816 4.083,-19.699 2.156,-20.156 0,-20.189 c -2.189,0.033 -4.132,0.49 -5.831,1.373 -0.718,0.392 -1.429,0.888 -2.131,1.494 -0.704,0.603 -1.324,1.363 -1.863,2.279 -0.539,0.914 -0.971,2.008 -1.298,3.283 -0.327,1.274 -0.49,2.76 -0.49,4.459"
             style="fill:#ffffff;fill-opacity:1;fill-rule:nonzero;stroke:none"
             id="path108" /></g><g
           id="g110"
           transform="translate(490.4058,194.0146)"><path
             d="M 0,0 C -1.274,0 -2.287,-0.213 -3.038,-0.639 -3.79,-1.062 -4.354,-1.627 -4.729,-2.328 -5.104,-3.031 -5.35,-3.814 -5.464,-4.68 c -0.114,-0.867 -0.171,-1.74 -0.171,-2.621 0,-0.72 0.064,-1.504 0.196,-2.353 0.13,-0.85 0.4,-1.641 0.808,-2.375 0.408,-0.737 0.981,-1.348 1.715,-1.838 0.735,-0.49 1.707,-0.737 2.916,-0.737 1.208,0 2.181,0.247 2.915,0.737 0.735,0.49 1.299,1.101 1.69,1.838 0.393,0.734 0.654,1.525 0.785,2.375 0.13,0.849 0.196,1.633 0.196,2.353 0,0.717 -0.066,1.502 -0.196,2.352 -0.131,0.847 -0.392,1.64 -0.785,2.377 C 4.214,-1.838 3.65,-1.227 2.915,-0.736 2.181,-0.246 1.208,0 0,0 m -11.466,-7.352 c 0,2.059 0.212,3.897 0.637,5.514 0.423,1.617 1.102,2.988 2.033,4.115 0.931,1.127 2.115,1.993 3.553,2.598 C -3.806,5.479 -2.059,5.781 0,5.781 2.156,5.715 4.083,5.225 5.782,4.311 6.5,3.92 7.211,3.412 7.913,2.793 8.615,2.172 9.236,1.396 9.775,0.465 c 0.539,-0.932 0.98,-2.033 1.324,-3.307 0.342,-1.275 0.514,-2.762 0.514,-4.459 0,-1.699 -0.156,-3.185 -0.466,-4.459 -0.31,-1.275 -0.719,-2.369 -1.225,-3.283 -0.507,-0.916 -1.078,-1.676 -1.715,-2.279 -0.637,-0.606 -1.298,-1.102 -1.984,-1.494 -1.568,-0.883 -3.366,-1.34 -5.39,-1.373 -1.013,0.066 -1.993,0.279 -2.94,0.638 -0.817,0.326 -1.65,0.848 -2.499,1.567 -0.85,0.718 -1.552,1.763 -2.107,3.136 l 1.078,-1.422 v -11.662 h -5.831 z"
             style="fill:#ffffff;fill-opacity:1;fill-rule:nonzero;stroke:none"
             id="path112" /></g><g
           id="g114"
           transform="translate(521.7651,189.8975)"><path
             d="M 0,0 C -0.164,0.523 -0.367,1.045 -0.612,1.568 -0.857,2.09 -1.192,2.564 -1.617,2.99 -2.042,3.414 -2.548,3.748 -3.136,3.994 -3.724,4.238 -4.41,4.361 -5.194,4.361 -5.978,4.361 -6.664,4.238 -7.252,3.994 -7.84,3.748 -8.347,3.414 -8.771,2.99 -9.196,2.564 -9.539,2.09 -9.8,1.568 -10.062,1.045 -10.258,0.523 -10.388,0 Z m 6.174,0 c 0.065,-0.49 0.123,-0.996 0.172,-1.518 0.049,-0.523 0.073,-1.078 0.073,-1.666 v -0.882 h -17.15 c 0.065,-0.557 0.147,-1.12 0.245,-1.692 0.098,-0.57 0.261,-1.135 0.49,-1.689 0.359,-0.85 0.914,-1.602 1.666,-2.254 0.751,-0.654 1.796,-0.981 3.136,-0.981 1.34,0 2.384,0.327 3.136,0.981 0.751,0.652 1.306,1.404 1.666,2.254 h 6.37 C 5.716,-8.592 5.349,-9.588 4.876,-10.438 4.401,-11.287 3.879,-12.021 3.308,-12.641 2.735,-13.262 2.123,-13.777 1.47,-14.186 c -0.654,-0.408 -1.291,-0.742 -1.911,-1.003 -1.503,-0.588 -3.087,-0.883 -4.753,-0.883 -2.189,0.033 -4.133,0.49 -5.831,1.373 -0.719,0.392 -1.429,0.888 -2.131,1.494 -0.703,0.603 -1.323,1.363 -1.863,2.279 -0.539,0.914 -0.972,2.008 -1.298,3.283 -0.327,1.274 -0.49,2.76 -0.49,4.459 0,1.698 0.163,3.184 0.49,4.459 0.326,1.274 0.759,2.375 1.298,3.307 0.54,0.932 1.16,1.707 1.863,2.328 0.702,0.619 1.412,1.127 2.131,1.518 1.698,0.914 3.642,1.404 5.831,1.47 C -3.397,9.832 -1.715,9.457 -0.147,8.771 0.506,8.477 1.168,8.094 1.838,7.619 2.507,7.146 3.128,6.559 3.699,5.855 4.271,5.152 4.777,4.32 5.219,3.357 5.659,2.393 5.978,1.275 6.174,0"
             style="fill:#ffffff;fill-opacity:1;fill-rule:nonzero;stroke:none"
             id="path116" /></g><g
           id="g118"
           transform="translate(531.3687,177.0107)"><path
             d="M 0,0 C 0,0.719 0.007,1.258 0.024,1.617 0.041,1.977 0.139,2.238 0.318,2.4 0.498,2.564 0.792,2.654 1.2,2.67 1.608,2.688 2.205,2.695 2.989,2.695 3.773,2.695 4.368,2.688 4.777,2.67 5.186,2.654 5.479,2.564 5.659,2.4 5.839,2.238 5.937,1.977 5.953,1.617 5.97,1.258 5.978,0.719 5.978,0 5.978,-0.719 5.97,-1.258 5.953,-1.617 5.937,-1.977 5.839,-2.238 5.659,-2.4 5.479,-2.564 5.186,-2.654 4.777,-2.67 4.368,-2.688 3.773,-2.695 2.989,-2.695 2.205,-2.695 1.608,-2.688 1.2,-2.67 0.792,-2.654 0.498,-2.564 0.318,-2.4 0.139,-2.238 0.041,-1.977 0.024,-1.617 0.007,-1.258 0,-0.719 0,0 M 0,31.605 H 5.978 V 5.488 H 0 Z"
             style="fill:#ffffff;fill-opacity:1;fill-rule:nonzero;stroke:none"
             id="path120" /></g><g
           id="g122"
           transform="translate(373.7681,205.4678)"><path
             d="M 0,0 C 0,0.771 0.31,1.309 0.926,1.619 L 7.4,4.623 c 0.215,0.094 0.43,0.141 0.646,0.141 0.588,0 1.095,-0.285 1.526,-0.858 0.432,-0.57 0.649,-1.177 0.649,-1.824 0,-0.74 -0.309,-1.266 -0.926,-1.574 L 2.821,-2.498 C 2.512,-2.621 2.281,-2.682 2.127,-2.682 1.541,-2.682 1.041,-2.398 0.624,-1.828 0.208,-1.256 0,-0.648 0,0"
             style="fill:#ffffff;fill-opacity:1;fill-rule:nonzero;stroke:none"
             id="path124" /></g></g></g></g></svg>
