<svg id="Capa_1" data-name="Capa 1" xmlns="http://www.w3.org/2000/svg" viewBox="0 0 210 40"><defs><style>.cls-1{fill:#2e2e2d;}.cls-2{fill:#ffce00;}.cls-3{fill:#fff;}</style></defs><path d="M61.4,19.48h1.06c.46,0,.94.05,1.46.11a9.87,9.87,0,0,1,1.56.33,5.24,5.24,0,0,1,1.43.68,3.67,3.67,0,0,1,1,1.14,3.43,3.43,0,0,1,.4,1.71A4.26,4.26,0,0,1,67.64,26a4.72,4.72,0,0,1-1.73,1.45,7.08,7.08,0,0,1-2.2.64,18.59,18.59,0,0,1-2.09.14l-.72,0a8.53,8.53,0,0,1-1.29-.15,9.39,9.39,0,0,1-1.55-.44,5.42,5.42,0,0,1-1.5-.88,4.5,4.5,0,0,1-1.12-1.46A5.09,5.09,0,0,1,55,23.1h3.38a2.92,2.92,0,0,0,.08.6,1.64,1.64,0,0,0,.39.68,2.46,2.46,0,0,0,.91.57,5.39,5.39,0,0,0,1.66.26,10.06,10.06,0,0,0,2-.11,2.67,2.67,0,0,0,1-.38.91.91,0,0,0,.4-.48,1.62,1.62,0,0,0,.07-.47,1.74,1.74,0,0,0-.08-.5.93.93,0,0,0-.43-.46,3.34,3.34,0,0,0-1.08-.34,12.34,12.34,0,0,0-2-.17,9.09,9.09,0,0,1-2-.28,6,6,0,0,1-1.8-.76A4.11,4.11,0,0,1,56.22,20a3.29,3.29,0,0,1-.5-1.82,4.06,4.06,0,0,1,.5-2,4.28,4.28,0,0,1,1.31-1.43,6.23,6.23,0,0,1,1.87-.83,8.88,8.88,0,0,1,2.22-.27,13,13,0,0,1,1.63.13,6.46,6.46,0,0,1,2,.64A4.63,4.63,0,0,1,67,15.82a4.25,4.25,0,0,1,.68,2.63H64.25a1.74,1.74,0,0,0-.6-1.4,3.29,3.29,0,0,0-2.11-.51,3.4,3.4,0,0,0-1.83.43A1.33,1.33,0,0,0,59,18.15a1,1,0,0,0,.66,1A4.2,4.2,0,0,0,61.4,19.48Z"/><path d="M82.78,19.17c0,.28.07.56.09.86a9.2,9.2,0,0,1,0,.94v.5h-9.7c0,.31.09.63.14,1a4.69,4.69,0,0,0,.28.95,3.29,3.29,0,0,0,.94,1.27,3.08,3.08,0,0,0,3.54,0,3.43,3.43,0,0,0,.95-1.27h3.6a6.51,6.51,0,0,1-1.51,2.94,5.23,5.23,0,0,1-1,.87,8.1,8.1,0,0,1-1.08.57,7.38,7.38,0,0,1-2.69.5,7.26,7.26,0,0,1-3.29-.78,6.51,6.51,0,0,1-1.21-.85,5,5,0,0,1-1-1.28,6.88,6.88,0,0,1-.73-1.86A10,10,0,0,1,69.79,21a10,10,0,0,1,.28-2.52,7.08,7.08,0,0,1,.73-1.87,5,5,0,0,1,1-1.31,6.59,6.59,0,0,1,1.21-.86,7.15,7.15,0,0,1,3.29-.83,7,7,0,0,1,4,1.28,5.47,5.47,0,0,1,1,1,6.87,6.87,0,0,1,.86,1.41A7.2,7.2,0,0,1,82.78,19.17Zm-3.49,0a7.12,7.12,0,0,0-.35-.89,2.93,2.93,0,0,0-.57-.8,2.65,2.65,0,0,0-.85-.57,3.22,3.22,0,0,0-1.17-.2,3.16,3.16,0,0,0-1.16.2,2.69,2.69,0,0,0-.86.57,3.2,3.2,0,0,0-.58.8,4.21,4.21,0,0,0-.33.89Z"/><path d="M84.66,21A12.38,12.38,0,0,1,85,17.88a5.88,5.88,0,0,1,1.15-2.32,5.15,5.15,0,0,1,2-1.47,7.66,7.66,0,0,1,3-.51,7.14,7.14,0,0,1,3.27.83,6.53,6.53,0,0,1,1.2.86,5.19,5.19,0,0,1,1.06,1.31,7.84,7.84,0,0,1,.74,1.87A9.49,9.49,0,0,1,97.7,21a10.5,10.5,0,0,1-.26,2.52,7.22,7.22,0,0,1-.69,1.86,5.53,5.53,0,0,1-2.09,2.13,6.33,6.33,0,0,1-3,.78A5.62,5.62,0,0,1,90,27.89,5,5,0,0,1,88.54,27a4.48,4.48,0,0,1-1.19-1.77L88,26v6.59h-3.3Zm6.48-4.16a3.52,3.52,0,0,0-1.72.36,2.37,2.37,0,0,0-1,1,4.07,4.07,0,0,0-.42,1.33A12.12,12.12,0,0,0,88,21a8,8,0,0,0,.11,1.33,3.86,3.86,0,0,0,.45,1.34,3,3,0,0,0,1,1,3.45,3.45,0,0,0,3.3,0,2.86,2.86,0,0,0,.95-1,4.08,4.08,0,0,0,.45-1.34A9.27,9.27,0,0,0,94.3,21a9.39,9.39,0,0,0-.11-1.33,4.08,4.08,0,0,0-.45-1.34,2.86,2.86,0,0,0-.95-1A2.93,2.93,0,0,0,91.14,16.84Z"/><path d="M112.38,28h-3.29V26l.61-.8A4.58,4.58,0,0,1,108.51,27a5.19,5.19,0,0,1-1.42.88,5.55,5.55,0,0,1-1.66.37,6.36,6.36,0,0,1-3.05-.78,5.71,5.71,0,0,1-1.12-.85,5.45,5.45,0,0,1-1-1.28,8,8,0,0,1-.69-1.86A11,11,0,0,1,99.34,21a10,10,0,0,1,.28-2.52,7.08,7.08,0,0,1,.73-1.87,5,5,0,0,1,1.05-1.31,6.59,6.59,0,0,1,1.21-.86,7.19,7.19,0,0,1,3.29-.83,7.71,7.71,0,0,1,3,.51,5,5,0,0,1,2,1.47A5.88,5.88,0,0,1,112,17.88a12.38,12.38,0,0,1,.36,3.12ZM105.9,16.84a2.93,2.93,0,0,0-1.65.42,2.86,2.86,0,0,0-1,1,4.06,4.06,0,0,0-.44,1.34,8.19,8.19,0,0,0-.12,1.33,8.1,8.1,0,0,0,.12,1.33,4.06,4.06,0,0,0,.44,1.34,2.86,2.86,0,0,0,1,1,3,3,0,0,0,4.27-1A4.1,4.1,0,0,0,109,22.3a9.27,9.27,0,0,0,.11-1.33,12.13,12.13,0,0,0-.1-1.48,3.64,3.64,0,0,0-.42-1.33,2.37,2.37,0,0,0-.95-1A3.52,3.52,0,0,0,105.9,16.84Z"/><path d="M114.13,18a3.68,3.68,0,0,1,.61-2.26,4.25,4.25,0,0,1,1.33-1.23,4.57,4.57,0,0,1,1.93-.61h3.88v3.35h-2.6a1.82,1.82,0,0,0-.9.19,2,2,0,0,0-.54.42,1.54,1.54,0,0,0-.31.61V28h-3.4Z"/><path d="M136.48,28h-3.3V26l.61-.8A4.48,4.48,0,0,1,132.6,27a5,5,0,0,1-1.41.88,5.62,5.62,0,0,1-1.66.37,6.3,6.3,0,0,1-3-.78,5.43,5.43,0,0,1-1.12-.85,5.19,5.19,0,0,1-1-1.28,7.22,7.22,0,0,1-.69-1.86,10.46,10.46,0,0,1-.27-2.52,10,10,0,0,1,.28-2.52,7.44,7.44,0,0,1,.73-1.87,5.19,5.19,0,0,1,1.06-1.31,6.21,6.21,0,0,1,1.2-.86,7.2,7.2,0,0,1,3.3-.83,7.66,7.66,0,0,1,3,.51,5.15,5.15,0,0,1,2,1.47,6,6,0,0,1,1.15,2.32,12.38,12.38,0,0,1,.36,3.12ZM130,16.84a2.88,2.88,0,0,0-1.65.42,2.8,2.8,0,0,0-1,1,4.06,4.06,0,0,0-.44,1.34,9.39,9.39,0,0,0-.11,1.33A9.27,9.27,0,0,0,127,22.3a4.06,4.06,0,0,0,.44,1.34,2.8,2.8,0,0,0,1,1,3.43,3.43,0,0,0,3.29,0,2.92,2.92,0,0,0,1-1,3.88,3.88,0,0,0,.46-1.34,9.27,9.27,0,0,0,.11-1.33,10.41,10.41,0,0,0-.1-1.48,3.83,3.83,0,0,0-.41-1.33,2.34,2.34,0,0,0-1-1A3.45,3.45,0,0,0,130,16.84Z"/><path d="M141.68,9.28V28H138.3V9.28Z"/><path d="M143.43,21a10.46,10.46,0,0,1,.27-2.52,7.44,7.44,0,0,1,.74-1.87,5,5,0,0,1,1.05-1.31,6.59,6.59,0,0,1,1.21-.86,6.9,6.9,0,0,1,6.56,0,6.53,6.53,0,0,1,1.2.86,5.19,5.19,0,0,1,1.06,1.31,7.84,7.84,0,0,1,.74,1.87,9.49,9.49,0,0,1,.29,2.52,9.49,9.49,0,0,1-.29,2.52,7.59,7.59,0,0,1-.74,1.86,5.21,5.21,0,0,1-1.06,1.28,6.46,6.46,0,0,1-1.2.85,7.29,7.29,0,0,1-6.56,0,6.51,6.51,0,0,1-1.21-.85,5,5,0,0,1-1.05-1.28,7.22,7.22,0,0,1-.74-1.86A10.46,10.46,0,0,1,143.43,21ZM150,16.84a2.93,2.93,0,0,0-1.65.42,2.86,2.86,0,0,0-1,1,4.33,4.33,0,0,0-.45,1.34,9.39,9.39,0,0,0-.11,1.33,9.27,9.27,0,0,0,.11,1.33,4.33,4.33,0,0,0,.45,1.34,2.86,2.86,0,0,0,1,1,3.45,3.45,0,0,0,3.3,0,2.86,2.86,0,0,0,1-1A4.08,4.08,0,0,0,153,22.3a9.27,9.27,0,0,0,.11-1.33,9.39,9.39,0,0,0-.11-1.33,4.08,4.08,0,0,0-.45-1.34,2.86,2.86,0,0,0-1-1A2.93,2.93,0,0,0,150,16.84Z"/><path d="M163.92,21a12.38,12.38,0,0,1,.36-3.12,5.88,5.88,0,0,1,1.15-2.32,5.15,5.15,0,0,1,2-1.47,7.66,7.66,0,0,1,3-.51,7.14,7.14,0,0,1,3.27.83,6.21,6.21,0,0,1,1.2.86,5.19,5.19,0,0,1,1.06,1.31,8.28,8.28,0,0,1,.75,1.87A9.92,9.92,0,0,1,177,21a10.46,10.46,0,0,1-.27,2.52,7.22,7.22,0,0,1-.69,1.86,5.53,5.53,0,0,1-2.09,2.13,6.33,6.33,0,0,1-3,.78,5.62,5.62,0,0,1-1.66-.37A5,5,0,0,1,167.8,27a4.48,4.48,0,0,1-1.19-1.77l.61.8v6.59h-3.3Zm6.48-4.16a3.45,3.45,0,0,0-1.71.36,2.34,2.34,0,0,0-1,1,4.07,4.07,0,0,0-.42,1.33,12.12,12.12,0,0,0-.09,1.48,8,8,0,0,0,.11,1.33,3.86,3.86,0,0,0,.45,1.34,3.11,3.11,0,0,0,1,1,3.45,3.45,0,0,0,3.3,0,2.89,2.89,0,0,0,1-1,4.31,4.31,0,0,0,.44-1.34,9.27,9.27,0,0,0,.11-1.33,9.39,9.39,0,0,0-.11-1.33A4.31,4.31,0,0,0,173,18.3a2.89,2.89,0,0,0-1-1A2.93,2.93,0,0,0,170.4,16.84Z"/><path d="M191.62,19.17c0,.28.07.56.09.86a9.31,9.31,0,0,1,0,.94v.5h-9.69c0,.31.08.63.14,1a4.69,4.69,0,0,0,.28.95,3.29,3.29,0,0,0,.94,1.27,3.08,3.08,0,0,0,3.54,0,3.43,3.43,0,0,0,.95-1.27h3.6a6.33,6.33,0,0,1-.63,1.69,6.74,6.74,0,0,1-.88,1.25,5.23,5.23,0,0,1-1,.87,8.1,8.1,0,0,1-1.08.57,7.38,7.38,0,0,1-2.69.5,7.23,7.23,0,0,1-3.29-.78,6.51,6.51,0,0,1-1.21-.85,5,5,0,0,1-1.05-1.28,7.22,7.22,0,0,1-.74-1.86,10.46,10.46,0,0,1-.27-2.52,10.46,10.46,0,0,1,.27-2.52,7.44,7.44,0,0,1,.74-1.87,5,5,0,0,1,1.05-1.31,6.59,6.59,0,0,1,1.21-.86,7.12,7.12,0,0,1,3.29-.83,7,7,0,0,1,4,1.28,5.77,5.77,0,0,1,1.05,1,6.87,6.87,0,0,1,.86,1.41A7.2,7.2,0,0,1,191.62,19.17Zm-3.49,0a9.09,9.09,0,0,0-.35-.89,2.93,2.93,0,0,0-.57-.8,2.59,2.59,0,0,0-.86-.57,3.46,3.46,0,0,0-2.32,0,2.69,2.69,0,0,0-.86.57,3.2,3.2,0,0,0-.58.8,4.21,4.21,0,0,0-.33.89Z"/><path d="M193.55,23.35V8.59h3.38V23.35Zm0,3.1c0-.4,0-.71,0-.91a.61.61,0,0,1,.16-.44.76.76,0,0,1,.5-.15l1,0,1,0a.73.73,0,0,1,.5.15.62.62,0,0,1,.17.44c0,.2,0,.51,0,.91s0,.72,0,.92a.62.62,0,0,1-.17.44.78.78,0,0,1-.5.15l-1,0-1,0a.82.82,0,0,1-.5-.15.61.61,0,0,1-.16-.44C193.56,27.17,193.55,26.86,193.55,26.45Z"/><path d="M104.48,10.37a.92.92,0,0,1,.52-.91l3.66-1.7a.8.8,0,0,1,.37-.08,1.07,1.07,0,0,1,.86.48,1.72,1.72,0,0,1,.36,1,.91.91,0,0,1-.52.89l-3.66,1.7a1.17,1.17,0,0,1-.39.11,1,1,0,0,1-.85-.49A1.73,1.73,0,0,1,104.48,10.37Z"/><rect class="cls-1" x="14.25" y="7.21" width="33.74" height="6.22"/><rect class="cls-1" x="17.32" y="15.32" width="3.78" height="3.78"/><rect class="cls-1" x="17.32" y="21.75" width="3.78" height="3.78"/><rect class="cls-1" x="17.32" y="28.18" width="3.78" height="3.78"/><rect class="cls-1" x="23.28" y="15.32" width="3.78" height="3.78"/><rect class="cls-1" x="23.28" y="21.75" width="3.78" height="3.78"/><rect class="cls-1" x="23.28" y="28.18" width="3.78" height="3.78"/><rect class="cls-2" x="29.23" y="28.18" width="3.77" height="3.78"/><rect class="cls-1" x="35.19" y="15.32" width="3.78" height="3.78"/><rect class="cls-1" x="35.19" y="21.75" width="3.78" height="3.78"/><rect class="cls-1" x="35.19" y="28.18" width="3.78" height="3.78"/><rect class="cls-1" x="41.14" y="15.32" width="3.78" height="3.78"/><rect class="cls-2" x="29.23" y="15.32" width="3.77" height="10.2"/><path class="cls-1" d="M53.7,32.71l-3.41-3.09,2-2.18a1.17,1.17,0,0,0,.25-1.13,1.19,1.19,0,0,0-.85-.79l-8.25-1.91A1.15,1.15,0,0,0,42.3,24a1.13,1.13,0,0,0-.24,1.15l2.73,8a1.17,1.17,0,0,0,.87.77,1.37,1.37,0,0,0,.29,0,1.15,1.15,0,0,0,.8-.38l2-2.19,3.41,3.08a1.16,1.16,0,0,0,1.64-.08,1.15,1.15,0,0,0-.08-1.64"/><path class="cls-1" d="M46.78,6.43H15.46a2,2,0,0,0-2,2v25a2,2,0,0,0,2,2h26.2a.78.78,0,0,0,0-1.56H15.46a.43.43,0,0,1-.43-.43v-25A.42.42,0,0,1,15.46,8H46.78a.42.42,0,0,1,.43.42V20.77a.78.78,0,1,0,1.56,0V8.41A2,2,0,0,0,46.78,6.43Z"/><path class="cls-3" d="M41.14,9.47A1.89,1.89,0,1,0,43,7.58,1.89,1.89,0,0,0,41.14,9.47Z"/><path class="cls-3" d="M17.32,9.41a1.89,1.89,0,1,0,1.89-1.89A1.89,1.89,0,0,0,17.32,9.41Z"/><path class="cls-1" d="M20.44,8.67a1.23,1.23,0,0,1-2.46,0V4.13a1.23,1.23,0,0,1,2.46,0Z"/><path class="cls-1" d="M44.26,8.73a1.23,1.23,0,0,1-2.46,0V4.19a1.23,1.23,0,0,1,2.46,0Z"/></svg>