<svg width="1203" height="215" viewBox="0 0 1203 215" fill="none" xmlns="http://www.w3.org/2000/svg">
<path d="M228.8 27.8999H5.2002V69.1999H228.8V27.8999Z" fill="#232323"/>
<path d="M50.5 81.6001H25.5V106.6H50.5V81.6001Z" fill="#232323"/>
<path d="M50.5 124.3H25.5V149.3H50.5V124.3Z" fill="#232323"/>
<path d="M50.5 166.9H25.5V191.9H50.5V166.9Z" fill="#232323"/>
<path d="M90 81.6001H65V106.6H90V81.6001Z" fill="#232323"/>
<path d="M90 124.3H65V149.3H90V124.3Z" fill="#232323"/>
<path d="M90 166.9H65V191.9H90V166.9Z" fill="#232323"/>
<path d="M129.5 166.9H104.5V191.9H129.5V166.9Z" fill="white"/>
<path d="M168.9 81.6001H143.9V106.6H168.9V81.6001Z" fill="#232323"/>
<path d="M168.9 124.3H143.9V149.3H168.9V124.3Z" fill="#232323"/>
<path d="M168.9 166.9H143.9V191.9H168.9V166.9Z" fill="#232323"/>
<path d="M208.4 81.6001H183.4V106.6H208.4V81.6001Z" fill="#232323"/>
<path d="M129.5 81.6001H104.5V149.2H129.5V81.6001Z" fill="white"/>
<path d="M266.7 196.9L244.1 176.5L257.2 162C259 160 259.7 157.1 258.8 154.5C258 151.9 255.8 149.9 253.2 149.3L198.5 136.6C195.8 136 192.9 136.9 191 138.9C189.1 141 188.5 143.9 189.4 146.6L207.5 199.7C208.4 202.3 210.6 204.2 213.2 204.8C213.8 204.9 214.5 205 215.1 204.9C217.1 204.8 219 203.9 220.4 202.4L233.5 187.9L256.1 208.3C257.7 209.7 259.7 210.4 261.7 210.3C263.7 210.2 265.6 209.3 267 207.8C270.1 204.6 269.8 199.8 266.7 196.9Z" fill="#232323"/>
<path d="M220.8 22.7002H13.2C5.9 22.7002 0 28.6002 0 35.9002V201.7C0 209 5.9 214.9 13.2 214.9H85.1H183.4H186.8C189.6 214.9 192 212.6 192 209.7C192 206.8 189.7 204.5 186.8 204.5H183.4H13.2C11.6 204.5 10.4 203.2 10.4 201.7V35.9002C10.4 34.3002 11.7 33.1002 13.2 33.1002H220.8C222.4 33.1002 223.6 34.4002 223.6 35.9002V74.3002V117.1V117.7C223.6 120.6 225.9 122.9 228.8 122.9C231.7 122.9 234 120.6 234 117.7V117.1V74.3002V35.9002C234 28.6002 228.1 22.7002 220.8 22.7002Z" fill="#232323"/>
<path d="M183.4 42.8998C183.4 49.7998 189 55.3998 195.9 55.3998C202.8 55.3998 208.4 49.7998 208.4 42.8998C208.4 35.9998 202.8 30.3998 195.9 30.3998C189 30.2998 183.4 35.8998 183.4 42.8998Z" fill="white"/>
<path d="M25.5 42.5C25.5 49.4 31.1 55 38 55C44.9 55 50.5 49.4 50.5 42.5C50.5 35.6 45 30 38 30C31.1 30 25.5 35.5 25.5 42.5Z" fill="white"/>
<path d="M46.1998 37.6C46.1998 41.8 42.4998 45.1 37.9998 45.1C33.4998 45.1 29.7998 41.7 29.7998 37.6V7.5C29.8998 3.4 33.4998 0 37.9998 0C42.4998 0 46.1998 3.4 46.1998 7.5V37.6Z" fill="#232323"/>
<path d="M204.1 37.9999C204.1 42.1999 200.4 45.4999 195.9 45.4999C191.4 45.4999 187.7 42.0999 187.7 37.9999V7.8999C187.7 3.6999 191.4 0.399902 195.9 0.399902C200.4 0.399902 204.1 3.7999 204.1 7.8999V37.9999Z" fill="#232323"/>
<path d="M316.9 113.4C318.6 113.4 320.9 113.4 323.9 113.5C326.8 113.6 330 113.8 333.4 114.2C336.8 114.6 340.2 115.3 343.6 116.4C347.1 117.4 350.1 118.9 352.9 120.8C355.7 122.7 357.9 125.2 359.7 128.2C361.4 131.2 362.3 135 362.3 139.4C362.3 146.4 360.8 152 357.7 156.1C354.6 160.3 350.9 163.4 346.4 165.6C341.9 167.8 337.1 169.2 332 169.8C326.9 170.4 322.3 170.7 318.3 170.7C317.6 170.7 316 170.7 313.6 170.6C311.2 170.5 308.4 170.2 305.2 169.6C302 169 298.6 168 295.1 166.7C291.5 165.4 288.3 163.5 285.3 161C282.3 158.5 279.9 155.3 278 151.4C276.1 147.5 275.1 142.7 275.1 137H297.2C297.2 138.1 297.4 139.4 297.7 140.9C298.1 142.4 298.9 143.9 300.2 145.3C301.5 146.7 303.5 148 306.2 149C308.9 150 312.5 150.6 317 150.7C322.7 150.8 327 150.6 330.1 150C333.2 149.4 335.4 148.6 336.9 147.6C338.3 146.6 339.2 145.5 339.5 144.4C339.8 143.3 340 142.3 340 141.3C340 140.2 339.8 139.1 339.5 138.1C339.1 137 338.2 136 336.7 135.1C335.2 134.2 332.8 133.4 329.7 132.8C326.5 132.2 322.1 131.8 316.4 131.7C312 131.6 307.7 131 303.4 129.9C299.1 128.8 295.1 127.2 291.6 124.9C288.1 122.7 285.3 119.9 283.1 116.5C280.9 113.1 279.8 109.1 279.8 104.6C279.8 99.4998 280.9 95.0998 283.1 91.2998C285.3 87.4998 288.1 84.3998 291.7 81.9998C295.3 79.5998 299.3 77.7998 303.9 76.5998C308.5 75.3998 313.3 74.7998 318.4 74.7998C321 74.7998 324.6 75.0998 329.1 75.6998C333.6 76.2998 337.9 77.6998 342.2 79.8998C346.5 82.0998 350.2 85.2998 353.2 89.4998C356.3 93.6998 357.8 99.4998 357.6 106.7H335.5C335.5 102.9 334.2 99.7998 331.6 97.5998C329 95.3998 324.4 94.1998 317.7 94.1998C312.8 94.1998 308.8 95.0998 305.8 96.9998C302.8 98.8998 301.3 101.4 301.3 104.7C301.3 107.8 302.8 110.1 305.6 111.4C308.6 112.7 312.3 113.4 316.9 113.4Z" fill="#232323"/>
<path d="M456.5 111.4C456.7 113.2 457 115.1 457.1 117C457.3 118.9 457.4 121 457.4 123.2V126.5H394.1C394.3 128.6 394.6 130.6 395 132.7C395.4 134.8 396 136.9 396.8 138.9C398.1 142 400.2 144.8 402.9 147.2C405.7 149.6 409.5 150.8 414.5 150.8C419.4 150.8 423.3 149.6 426.1 147.2C428.9 144.8 430.9 142 432.3 138.9H455.8C454.8 143.1 453.5 146.8 451.7 149.9C449.9 153 448 155.7 445.9 158C443.8 160.3 441.5 162.2 439.1 163.7C436.7 165.2 434.3 166.4 432 167.4C426.5 169.6 420.6 170.7 414.5 170.7C406.4 170.6 399.2 168.9 393 165.6C390.3 164.2 387.7 162.3 385.1 160.1C382.5 157.9 380.2 155.1 378.2 151.7C376.2 148.3 374.6 144.3 373.4 139.6C372.2 134.9 371.6 129.4 371.6 123.1C371.6 116.8 372.2 111.3 373.4 106.6C374.6 101.9 376.2 97.7998 378.2 94.3998C380.2 90.9998 382.5 88.0998 385.1 85.7998C387.7 83.4998 390.3 81.5998 393 80.1998C399.3 76.7998 406.4 74.9998 414.5 74.7998C421.1 74.9998 427.3 76.3998 433.1 78.9998C435.5 80.0998 438 81.4998 440.4 83.2998C442.9 84.9998 445.2 87.1998 447.3 89.7998C449.4 92.3998 451.3 95.4998 452.9 98.9998C454.6 102.5 455.8 106.7 456.5 111.4ZM433.7 111.4C433.1 109.5 432.3 107.5 431.4 105.6C430.5 103.7 429.3 101.9 427.7 100.3C426.1 98.6998 424.3 97.4998 422.1 96.5998C419.9 95.6998 417.4 95.1998 414.5 95.1998C411.6 95.1998 409.1 95.5998 406.9 96.5998C404.7 97.4998 402.9 98.6998 401.3 100.3C399.7 101.9 398.5 103.6 397.5 105.6C396.5 107.5 395.8 109.5 395.3 111.4H433.7Z" fill="#232323"/>
<path d="M468.8 123.3C468.8 115.7 469.6 108.9 471.2 102.9C472.8 96.8998 475.3 91.8998 478.7 87.6998C482.1 83.4998 486.5 80.2998 491.8 78.0998C497.1 75.8998 503.6 74.7998 511.2 74.7998C519.2 74.9998 526.3 76.8998 532.6 80.1998C535.2 81.5998 537.9 83.4998 540.5 85.7998C543.1 88.0998 545.4 90.9998 547.4 94.3998C549.4 97.7998 551 101.9 552.3 106.6C553.6 111.3 554.2 116.8 554.2 123.1C554.2 129.4 553.6 134.9 552.5 139.6C551.4 144.3 549.8 148.4 548 151.7C546.1 155.1 544 157.9 541.7 160.1C539.4 162.3 536.9 164.2 534.4 165.6C528.6 168.9 522 170.6 514.5 170.7C510.8 170.5 507.1 169.7 503.6 168.3C500.6 167.1 497.5 165.2 494.4 162.5C491.3 159.8 488.7 156 486.6 150.9L490.6 156.2V199.3H469.1V123.3H468.8ZM511.2 96.1998C506.5 96.1998 502.8 96.9998 500 98.5998C497.2 100.2 495.1 102.2 493.8 104.8C492.4 107.4 491.5 110.3 491.1 113.5C490.7 116.7 490.5 119.9 490.5 123.2C490.5 125.9 490.7 128.8 491.2 131.9C491.7 135 492.7 138 494.2 140.7C495.7 143.4 497.8 145.7 500.5 147.5C503.2 149.3 506.8 150.2 511.3 150.2C515.8 150.2 519.4 149.3 522.1 147.5C524.8 145.7 526.9 143.4 528.3 140.7C529.8 138 530.7 135.1 531.2 131.9C531.7 128.8 531.9 125.9 531.9 123.2C531.9 120.6 531.7 117.7 531.2 114.5C530.7 111.4 529.8 108.4 528.3 105.7C526.9 103 524.8 100.7 522.1 98.8998C519.2 97.0998 515.6 96.1998 511.2 96.1998Z" fill="#232323"/>
<path d="M649.9 168.9H628.4V156.2L632.4 150.9C630.4 156 627.7 159.8 624.6 162.5C621.5 165.2 618.4 167.1 615.4 168.3C611.9 169.6 608.3 170.4 604.5 170.7C597 170.6 590.4 168.9 584.6 165.6C582.1 164.2 579.6 162.3 577.3 160.1C575 157.9 572.8 155.1 571 151.7C569.1 148.3 567.6 144.3 566.5 139.6C565.4 134.9 564.8 129.4 564.8 123.1C564.8 116.8 565.4 111.3 566.6 106.6C567.8 101.9 569.4 97.7998 571.4 94.3998C573.4 90.9998 575.7 88.0998 578.3 85.7998C580.9 83.4998 583.5 81.5998 586.2 80.1998C592.5 76.7998 599.7 74.9998 607.7 74.7998C615.3 74.7998 621.8 75.8998 627.1 78.0998C632.4 80.2998 636.8 83.4998 640.2 87.6998C643.6 91.8998 646.1 96.8998 647.7 102.9C649.3 108.9 650 115.7 650 123.3V168.9H649.9ZM607.6 96.1998C603.1 96.1998 599.5 97.0998 596.8 98.8998C594.1 100.7 592 103 590.6 105.7C589.2 108.4 588.2 111.4 587.7 114.5C587.2 117.6 587 120.5 587 123.2C587 125.9 587.2 128.8 587.7 131.9C588.2 135 589.1 138 590.6 140.7C592 143.4 594.1 145.7 596.8 147.5C599.5 149.3 603.1 150.2 607.6 150.2C612.1 150.2 615.7 149.3 618.4 147.5C621.1 145.7 623.2 143.4 624.7 140.7C626.2 138 627.2 135.1 627.7 131.9C628.2 128.8 628.4 125.9 628.4 123.2C628.4 119.9 628.2 116.7 627.8 113.5C627.4 110.3 626.5 107.4 625.1 104.8C623.7 102.2 621.6 100.1 618.9 98.5998C616.1 96.8998 612.3 96.1998 607.6 96.1998Z" fill="#232323"/>
<path d="M661.3 103.9C661.3 97.5996 662.6 92.6996 665.3 89.1996C668 85.5996 670.8 82.9996 674 81.0996C677.7 78.8996 682 77.5996 686.7 77.0996H712V98.9996H695C692.6 98.9996 690.6 99.3996 689.1 100.3C687.6 101.2 686.4 102.1 685.6 103C684.6 104.2 684 105.5 683.6 107V168.9H661.3V103.9Z" fill="#232323"/>
<path d="M807.3 168.9H785.8V156.2L789.8 150.9C787.8 156 785.2 159.8 782 162.5C778.9 165.2 775.8 167.1 772.8 168.3C769.3 169.6 765.7 170.4 762 170.7C754.5 170.6 747.9 168.9 742.1 165.6C739.6 164.2 737.1 162.3 734.8 160.1C732.4 157.9 730.3 155.1 728.5 151.7C726.6 148.3 725.1 144.3 724 139.6C722.8 134.9 722.3 129.4 722.3 123.1C722.3 116.8 722.9 111.3 724.1 106.6C725.3 101.9 726.9 97.7998 728.9 94.3998C730.9 90.9998 733.2 88.0998 735.8 85.7998C738.4 83.4998 741 81.5998 743.7 80.1998C750 76.7998 757.1 74.9998 765.2 74.7998C772.8 74.7998 779.2 75.8998 784.6 78.0998C789.9 80.2998 794.3 83.4998 797.7 87.6998C801.1 91.8998 803.6 96.8998 805.2 102.9C806.8 108.9 807.6 115.7 807.6 123.3V168.9H807.3ZM765 96.1998C760.5 96.1998 756.9 97.0998 754.2 98.8998C751.5 100.7 749.4 103 748 105.7C746.5 108.4 745.6 111.4 745.1 114.5C744.6 117.6 744.4 120.5 744.4 123.2C744.4 125.9 744.7 128.8 745.1 131.9C745.6 135 746.5 138 748 140.7C749.4 143.4 751.5 145.7 754.2 147.5C756.9 149.3 760.5 150.2 765 150.2C769.5 150.2 773.1 149.3 775.8 147.5C778.5 145.7 780.6 143.4 782.1 140.7C783.6 138 784.6 135.1 785.1 131.9C785.6 128.8 785.8 125.9 785.8 123.2C785.8 119.9 785.6 116.7 785.2 113.5C784.8 110.3 783.9 107.4 782.5 104.8C781.1 102.2 779 100.1 776.3 98.5998C773.4 96.8998 769.7 96.1998 765 96.1998Z" fill="#232323"/>
<path d="M841.4 46.7998V168.9H819.3V46.7998H841.4Z" fill="#232323"/>
<path d="M852.7 123.1C852.7 116.8 853.3 111.3 854.5 106.6C855.7 101.9 857.3 97.7998 859.3 94.3998C861.3 90.9998 863.6 88.0998 866.2 85.7998C868.8 83.4998 871.4 81.5998 874.1 80.1998C880.4 76.7998 887.5 74.9998 895.6 74.7998C903.6 74.9998 910.7 76.8998 916.9 80.1998C919.6 81.5998 922.2 83.4998 924.8 85.7998C927.4 88.0998 929.7 90.9998 931.7 94.3998C933.7 97.7998 935.3 101.9 936.6 106.6C937.9 111.3 938.5 116.8 938.5 123.1C938.5 129.4 937.9 134.9 936.6 139.6C935.3 144.3 933.7 148.4 931.7 151.7C929.7 155.1 927.4 157.9 924.8 160.1C922.2 162.3 919.6 164.2 916.9 165.6C910.6 168.9 903.5 170.6 895.6 170.7C887.5 170.6 880.3 168.9 874.1 165.6C871.4 164.2 868.8 162.3 866.2 160.1C863.6 157.9 861.3 155.1 859.3 151.7C857.3 148.3 855.7 144.3 854.5 139.6C853.3 134.9 852.7 129.4 852.7 123.1ZM895.6 96.1998C891.1 96.1998 887.5 97.0998 884.8 98.8998C882.1 100.7 880 103 878.6 105.7C877.2 108.4 876.2 111.4 875.7 114.5C875.2 117.6 875 120.5 875 123.2C875 125.9 875.2 128.8 875.7 131.9C876.2 135 877.1 138 878.6 140.7C880.1 143.4 882.1 145.7 884.8 147.5C887.5 149.3 891.1 150.2 895.6 150.2C900 150.2 903.6 149.3 906.4 147.5C909.1 145.7 911.2 143.4 912.6 140.7C914.1 138 915 135.1 915.5 131.9C916 128.8 916.2 125.9 916.2 123.2C916.2 120.6 916 117.7 915.5 114.5C915 111.4 914 108.4 912.6 105.7C911.2 103 909.1 100.7 906.4 98.8998C903.7 97.0998 900.1 96.1998 895.6 96.1998Z" fill="#232323"/>
<path d="M986.6 123.3C986.6 115.7 987.4 108.9 988.9 102.9C990.4 96.8998 993 91.8998 996.4 87.6998C999.8 83.4998 1004.2 80.2998 1009.5 78.0998C1014.8 75.8998 1021.3 74.7998 1028.9 74.7998C1036.9 74.9998 1044 76.8998 1050.2 80.1998C1052.9 81.5998 1055.5 83.4998 1058.1 85.7998C1060.7 88.0998 1063 90.9998 1065 94.3998C1067 97.7998 1068.6 101.9 1069.9 106.6C1071.2 111.3 1071.8 116.8 1071.8 123.1C1071.8 129.4 1071.2 134.9 1070.1 139.6C1069 144.3 1067.4 148.4 1065.6 151.7C1063.7 155.1 1061.6 157.9 1059.3 160.1C1057 162.3 1054.5 164.2 1052 165.6C1046.2 168.9 1039.6 170.6 1032.1 170.7C1028.4 170.5 1024.8 169.7 1021.3 168.3C1018.3 167.1 1015.2 165.2 1012.1 162.5C1009 159.8 1006.4 156 1004.3 150.9L1008.3 156.2V199.3H986.8V123.3H986.6ZM1029 96.1998C1024.3 96.1998 1020.6 96.9998 1017.8 98.5998C1015 100.2 1012.9 102.2 1011.6 104.8C1010.2 107.4 1009.3 110.3 1008.9 113.5C1008.5 116.7 1008.3 119.9 1008.3 123.2C1008.3 125.9 1008.5 128.8 1009 131.9C1009.5 135 1010.5 138 1012 140.7C1013.5 143.4 1015.6 145.7 1018.3 147.5C1021 149.3 1024.6 150.2 1029.1 150.2C1033.6 150.2 1037.2 149.3 1039.9 147.5C1042.6 145.7 1044.7 143.4 1046.1 140.7C1047.6 138 1048.5 135.1 1049 131.9C1049.5 128.8 1049.7 125.9 1049.7 123.2C1049.7 120.6 1049.5 117.7 1049 114.5C1048.5 111.4 1047.6 108.4 1046.1 105.7C1044.6 103 1042.6 100.7 1039.9 98.8998C1037 97.0998 1033.4 96.1998 1029 96.1998Z" fill="#232323"/>
<path d="M1167.5 111.4C1167.7 113.2 1168 115.1 1168.1 117C1168.3 118.9 1168.4 121 1168.4 123.2V126.5H1105.1C1105.3 128.6 1105.7 130.6 1106 132.7C1106.4 134.8 1107 136.9 1107.8 138.9C1109.1 142 1111.2 144.8 1114 147.2C1116.8 149.6 1120.6 150.8 1125.6 150.8C1130.5 150.8 1134.4 149.6 1137.2 147.2C1140 144.8 1142 142 1143.4 138.9H1166.9C1165.9 143.1 1164.6 146.8 1162.8 149.9C1161 153 1159.1 155.7 1157 158C1154.9 160.3 1152.6 162.2 1150.2 163.7C1147.8 165.2 1145.4 166.4 1143.1 167.4C1137.6 169.6 1131.7 170.7 1125.6 170.7C1117.5 170.6 1110.3 168.9 1104.1 165.6C1101.4 164.2 1098.8 162.3 1096.2 160.1C1093.6 157.9 1091.3 155.1 1089.3 151.7C1087.3 148.3 1085.7 144.3 1084.5 139.6C1083.3 134.9 1082.7 129.4 1082.7 123.1C1082.7 116.8 1083.3 111.3 1084.5 106.6C1085.7 101.9 1087.3 97.7998 1089.3 94.3998C1091.3 90.9998 1093.6 88.0998 1096.2 85.7998C1098.8 83.4998 1101.4 81.5998 1104.1 80.1998C1110.4 76.7998 1117.6 74.9998 1125.6 74.7998C1132.2 74.9998 1138.4 76.3998 1144.2 78.9998C1146.6 80.0998 1149 81.4998 1151.5 83.2998C1154 84.9998 1156.3 87.1998 1158.4 89.7998C1160.5 92.3998 1162.4 95.4998 1164 98.9998C1165.6 102.5 1166.8 106.7 1167.5 111.4ZM1144.7 111.4C1144.1 109.5 1143.4 107.5 1142.4 105.6C1141.5 103.7 1140.3 101.9 1138.7 100.3C1137.1 98.6998 1135.3 97.4998 1133.1 96.5998C1130.9 95.6998 1128.4 95.1998 1125.5 95.1998C1122.6 95.1998 1120.1 95.5998 1117.9 96.5998C1115.7 97.4998 1113.9 98.6998 1112.3 100.3C1110.7 101.9 1109.5 103.6 1108.5 105.6C1107.5 107.5 1106.8 109.5 1106.3 111.4H1144.7Z" fill="#232323"/>
<path d="M1180.2 138.7V42.2998H1202.3V138.7H1180.2ZM1180.2 158.9C1180.2 156.2 1180.2 154.3 1180.3 152.9C1180.4 151.6 1180.7 150.6 1181.4 150C1182.1 149.4 1183.1 149.1 1184.6 149C1186.1 148.9 1188.3 148.9 1191.2 148.9C1194.1 148.9 1196.3 148.9 1197.8 149C1199.3 149.1 1200.4 149.4 1201.1 150C1201.8 150.6 1202.1 151.6 1202.2 152.9C1202.3 154.2 1202.3 156.2 1202.3 158.9C1202.3 161.6 1202.3 163.5 1202.2 164.9C1202.1 166.2 1201.8 167.2 1201.1 167.8C1200.4 168.4 1199.4 168.7 1197.8 168.8C1196.3 168.9 1194.1 168.9 1191.2 168.9C1188.3 168.9 1186.1 168.9 1184.6 168.8C1183.1 168.7 1182 168.4 1181.4 167.8C1180.7 167.2 1180.4 166.2 1180.3 164.9C1180.2 163.6 1180.2 161.6 1180.2 158.9Z" fill="#232323"/>
<path d="M598.3 53.8998C598.3 51.0998 599.5 49.0998 601.7 47.8998L625.6 36.7998C626.4 36.4998 627.2 36.2998 628 36.2998C630.2 36.2998 632 37.2998 633.6 39.4998C635.2 41.5998 636 43.8998 636 46.1998C636 48.8998 634.9 50.8998 632.6 51.9998L608.7 63.0998C607.6 63.4998 606.7 63.7998 606.1 63.7998C603.9 63.7998 602.1 62.6998 600.6 60.5998C599.1 58.4998 598.3 56.2998 598.3 53.8998Z" fill="#232323"/>
</svg>
