<svg width="16" height="14" viewBox="0 0 16 14" fill="none" xmlns="http://www.w3.org/2000/svg">
<path d="M5.07228 13.0145C11.0125 13.0145 14.254 8.12821 14.254 3.83275V3.40161C14.8608 2.93853 15.4037 2.37964 15.8349 1.74091C15.2441 1.9964 14.6373 2.17205 13.9985 2.26786C14.6532 1.85269 15.1483 1.24589 15.4037 0.52732C14.765 0.878622 14.0944 1.15008 13.3917 1.30976C13.0884 0.974431 12.7371 0.718939 12.3219 0.52732C11.9227 0.351669 11.4756 0.255859 11.0284 0.255859C10.1821 0.271828 9.36775 0.607161 8.76095 1.21396C8.15416 1.82075 7.81883 2.63513 7.80286 3.48145C7.78689 3.72097 7.81883 3.9605 7.8827 4.18405C6.58927 4.13615 5.32778 3.80081 4.17806 3.20999C3.02835 2.61916 2.02235 1.78881 1.22393 0.782812C0.952473 1.2938 0.79279 1.86865 0.79279 2.44351C0.808759 2.97046 0.936505 3.49742 1.17603 3.9605C1.41555 4.42358 1.76685 4.83875 2.18203 5.15812C1.65508 5.14215 1.14409 4.99843 0.696981 4.72697C0.696981 5.47748 0.952473 6.19605 1.43152 6.77091C1.91057 7.34577 2.58124 7.72901 3.31578 7.87272C3.02835 7.95256 2.74092 7.9845 2.43752 7.95256C2.22993 7.96853 2.02235 7.93659 1.83073 7.87272C2.03831 8.52742 2.45349 9.08631 2.99641 9.48551C3.53933 9.88472 4.21 10.1242 4.88067 10.1402C3.73095 11.0344 2.32574 11.5295 0.856664 11.5454C0.585203 11.5614 0.329711 11.5295 0.0742188 11.4656C1.5433 12.5035 3.29981 13.0464 5.07228 13.0145Z" fill="white"/>
</svg>
