<svg width="21" height="21" viewBox="0 0 21 21" fill="none" xmlns="http://www.w3.org/2000/svg">
<path d="M0.954545 13.3655C0.701384 13.3655 0.458592 13.466 0.27958 13.645C0.100568 13.824 0 14.0667 0 14.3198V17.1827C0 18.1951 0.402271 19.1661 1.11832 19.8819C1.83437 20.5978 2.80554 21 3.81818 21H17.1818C18.1945 21 19.1656 20.5978 19.8817 19.8819C20.5977 19.1661 21 18.1951 21 17.1827V14.3198C21 14.0667 20.8994 13.824 20.7204 13.645C20.5414 13.466 20.2986 13.3655 20.0455 13.3655C19.7923 13.3655 19.5495 13.466 19.3705 13.645C19.1915 13.824 19.0909 14.0667 19.0909 14.3198V17.1827C19.0909 17.6889 18.8898 18.1744 18.5317 18.5323C18.1737 18.8903 17.6881 19.0914 17.1818 19.0914H3.81818C3.31186 19.0914 2.82627 18.8903 2.46825 18.5323C2.11023 18.1744 1.90909 17.6889 1.90909 17.1827V14.3198C1.90909 14.0667 1.80852 13.824 1.62951 13.645C1.4505 13.466 1.20771 13.3655 0.954545 13.3655Z" fill="#594FA1"/>
<path d="M10.5003 1.25396e-09C10.2472 -2.08728e-08 10.0044 0.100542 9.82536 0.279512C9.64635 0.458481 9.54578 0.701214 9.54578 0.954315L9.54578 12.8833L7.34078 10.7742C7.25156 10.6813 7.14444 10.6074 7.02588 10.5569C6.90732 10.5065 6.77977 10.4806 6.65092 10.4807C6.52207 10.4809 6.39459 10.5071 6.27615 10.5579C6.15772 10.6086 6.05078 10.6828 5.96179 10.7759C5.8728 10.8691 5.8036 10.9793 5.75835 11.0999C5.7131 11.2205 5.69275 11.3491 5.69851 11.4777C5.70428 11.6064 5.73605 11.7326 5.7919 11.8487C5.84776 11.9648 5.92654 12.0684 6.02351 12.1532L9.84169 15.8035C10.0192 15.9727 10.2551 16.067 10.5003 16.067C10.7456 16.067 10.9814 15.9727 11.159 15.8035L14.9771 12.1532C15.0741 12.0684 15.1529 11.9648 15.2088 11.8487C15.2646 11.7326 15.2964 11.6064 15.3021 11.4777C15.3079 11.3491 15.2876 11.2205 15.2423 11.0999C15.1971 10.9793 15.1279 10.8691 15.0389 10.7759C14.9499 10.6828 14.8429 10.6086 14.7245 10.5579C14.6061 10.5071 14.4786 10.4809 14.3497 10.4807C14.2209 10.4806 14.0933 10.5065 13.9748 10.5569C13.8562 10.6074 13.7491 10.6813 13.6599 10.7742L11.4549 12.8737L11.4549 0.944771C11.4524 0.693329 11.3507 0.45304 11.1719 0.27613C10.9932 0.0992197 10.7518 -1.2893e-05 10.5003 1.25396e-09Z" fill="#594FA1"/>
</svg>
