<svg width="16" height="21" viewBox="0 0 16 21" fill="none" xmlns="http://www.w3.org/2000/svg">
<path d="M2.73399 4.84523C2.73399 3.88693 3.01815 2.95016 3.55055 2.15337C4.08296 1.35657 4.83968 0.735547 5.72503 0.368823C6.61038 0.00209931 7.58459 -0.0938523 8.52447 0.0931019C9.46435 0.280056 10.3277 0.741519 11.0053 1.41914C11.6829 2.09675 12.1444 2.96009 12.3313 3.89997C12.5183 4.83986 12.4223 5.81407 12.0556 6.69942C11.6889 7.58477 11.0679 8.34149 10.2711 8.87389C9.47429 9.40629 8.53751 9.69046 7.57922 9.69046C6.29418 9.69046 5.06178 9.17998 4.15312 8.27132C3.24446 7.36267 2.73399 6.13026 2.73399 4.84523ZM9.84235 11.2093H5.31608C3.90664 11.2109 2.55536 11.7714 1.55873 12.7681C0.562106 13.7647 0.0015298 15.116 2.03079e-06 16.5254V18.2114C-0.000397844 18.5107 0.0582592 18.8071 0.172614 19.0837C0.286969 19.3603 0.454774 19.6116 0.666415 19.8233C0.878056 20.0349 1.12937 20.2027 1.40597 20.3171C1.68257 20.4314 1.97902 20.4901 2.27832 20.4897H12.8801C13.1794 20.4901 13.4759 20.4314 13.7525 20.3171C14.0291 20.2027 14.2804 20.0349 14.492 19.8233C14.7037 19.6116 14.8715 19.3603 14.9858 19.0837C15.1002 18.8071 15.1588 18.5107 15.1584 18.2114V16.5254C15.1569 15.116 14.5963 13.7647 13.5997 12.7681C12.6031 11.7714 11.2518 11.2109 9.84235 11.2093Z" fill="black"/>
</svg>
