<svg width="39" height="39" viewBox="0 0 39 39" fill="none" xmlns="http://www.w3.org/2000/svg">
<rect width="39" height="39" fill="#E5E5E5"/>
<rect width="1164" height="1023" transform="translate(-437 -537)" fill="white"/>
<path d="M19.5 0C8.74421 0 0 8.74421 0 19.5C0 30.2558 8.74421 39 19.5 39C30.2558 39 39 30.2558 39 19.5C39 8.74421 30.2558 0 19.5 0ZM30.7484 26.6842C30.7484 27.6284 30.0095 28.3674 29.0653 28.3674H9.93474C8.99053 28.3674 8.25158 27.6284 8.25158 26.6842V12.3158C8.25158 11.3716 8.99053 10.6326 9.93474 10.6326H29.0242C29.9684 10.6326 30.7074 11.3716 30.7074 12.3158V26.6842H30.7484Z" fill="#FEDD00"/>
<path d="M23.8516 19.2527C23.6874 19.0064 23.3179 18.9654 23.0716 19.1706L21.7168 20.4843C21.5116 20.6896 21.1421 20.6896 20.9368 20.4022L17.5705 15.8864C17.3653 15.5991 16.9137 15.5991 16.7084 15.9275L11.2074 24.7127C11.0021 25.0412 11.2484 25.4927 11.6589 25.4927H27.3C27.7105 25.4927 27.9568 25.0001 27.7105 24.6717L23.8516 19.2527Z" fill="#FEDD00"/>
<path d="M24.8779 17.1607C25.9435 17.1607 26.8074 16.2968 26.8074 15.2312C26.8074 14.1656 25.9435 13.3018 24.8779 13.3018C23.8123 13.3018 22.9484 14.1656 22.9484 15.2312C22.9484 16.2968 23.8123 17.1607 24.8779 17.1607Z" fill="#FEDD00"/>
</svg>
